<?xml version="1.0" encoding="UTF-8"?>
<!DOCTYPE svg PUBLIC "-//W3C//DTD SVG 1.1//EN" "http://www.w3.org/Graphics/SVG/1.1/DTD/svg11.dtd">
<svg xmlns="http://www.w3.org/2000/svg" version="1.1" width="500px" height="275px" style="shape-rendering:geometricPrecision; text-rendering:geometricPrecision; image-rendering:optimizeQuality; fill-rule:evenodd; clip-rule:evenodd" xmlns:xlink="http://www.w3.org/1999/xlink">
<g><path style="opacity:0.996" fill="#1d1d1d" d="M 205.5,31.5 C 205.5,32.1667 205.833,32.5 206.5,32.5C 206.5,33.1667 206.833,33.5 207.5,33.5C 207.5,34.1667 207.833,34.5 208.5,34.5C 208.833,35.1667 209.167,35.8333 209.5,36.5C 211.296,38.9 213.63,40.5667 216.5,41.5C 216.833,41.5 217.167,41.5 217.5,41.5C 217.973,42.9063 218.973,43.573 220.5,43.5C 220.842,44.3382 221.508,44.6716 222.5,44.5C 222.5,45.1667 222.833,45.5 223.5,45.5C 224.035,47.4456 225.368,48.4456 227.5,48.5C 229.587,47.4154 230.92,45.7488 231.5,43.5C 233.452,42.2153 235.118,40.5486 236.5,38.5C 239.891,39.5293 242.557,41.5293 244.5,44.5C 240.198,50.9358 235.531,57.1024 230.5,63C 228.833,63.6667 227.167,63.6667 225.5,63C 213.367,53.7546 201.367,44.2546 189.5,34.5C 176.824,33.8208 172.657,27.4875 177,15.5C 187.708,10.9487 194.208,14.2821 196.5,25.5C 199.385,27.7686 202.385,29.7686 205.5,31.5 Z M 182.5,19.5 C 187.663,19.1068 189.33,21.2734 187.5,26C 181.741,27.1387 180.074,24.972 182.5,19.5 Z M 217.5,41.5 C 219.027,41.427 220.027,42.0937 220.5,43.5C 218.973,43.573 217.973,42.9063 217.5,41.5 Z M 231.5,43.5 C 231.167,43.5 230.833,43.5 230.5,43.5C 230.369,42.6236 230.702,41.9569 231.5,41.5C 232.463,41.9698 232.463,42.6365 231.5,43.5 Z M 223.5,45.5 C 224.708,46.2341 226.041,46.5674 227.5,46.5C 227.5,47.1667 227.5,47.8333 227.5,48.5C 225.368,48.4456 224.035,47.4456 223.5,45.5 Z"/></g>
<g><path style="opacity:1" fill="#212121" d="M 236.5,38.5 C 235.118,40.5486 233.452,42.2153 231.5,43.5C 230.92,45.7488 229.587,47.4154 227.5,48.5C 227.5,47.8333 227.5,47.1667 227.5,46.5C 226.041,46.5674 224.708,46.2341 223.5,45.5C 222.833,45.5 222.5,45.1667 222.5,44.5C 222.158,43.6618 221.492,43.3284 220.5,43.5C 220.027,42.0937 219.027,41.427 217.5,41.5C 217.167,40.1667 216.833,40.1667 216.5,41.5C 213.63,40.5667 211.296,38.9 209.5,36.5C 210.376,36.6309 211.043,36.2975 211.5,35.5C 210.675,34.6143 209.675,34.281 208.5,34.5C 207.833,34.5 207.5,34.1667 207.5,33.5C 206.833,33.5 206.5,33.1667 206.5,32.5C 205.833,32.5 205.5,32.1667 205.5,31.5C 207.017,27.4566 209.684,24.4566 213.5,22.5C 218.451,26.1013 223.451,29.7679 228.5,33.5C 230.978,35.1707 232.478,37.504 233,40.5C 233.816,39.1772 234.983,38.5106 236.5,38.5 Z M 231.5,43.5 C 231.167,43.5 230.833,43.5 230.5,43.5C 230.369,42.6236 230.702,41.9569 231.5,41.5C 232.463,41.9698 232.463,42.6365 231.5,43.5 Z"/></g>
<g><path style="opacity:0.998" fill="#1c1c1c" d="M 251.5,65.5 C 250.833,65.5 250.5,65.8333 250.5,66.5C 249.833,66.5 249.5,66.8333 249.5,67.5C 248.833,67.5 248.5,67.8333 248.5,68.5C 247.833,68.5 247.5,68.8333 247.5,69.5C 245.273,70.4006 244.273,72.0672 244.5,74.5C 243.833,74.5 243.5,74.8333 243.5,75.5C 242.833,75.5 242.5,75.8333 242.5,76.5C 241.833,76.5 241.5,76.8333 241.5,77.5C 240.833,77.5 240.5,77.8333 240.5,78.5C 239.833,78.5 239.5,78.8333 239.5,79.5C 237.896,80.287 237.229,81.6203 237.5,83.5C 234.588,84.5783 234.254,85.9117 236.5,87.5C 236.5,88.1667 236.833,88.5 237.5,88.5C 237.5,89.1667 237.833,89.5 238.5,89.5C 238.5,90.1667 238.833,90.5 239.5,90.5C 239.5,90.8333 239.5,91.1667 239.5,91.5C 240.207,93.1344 241.373,94.4677 243,95.5C 243.49,96.7932 243.657,98.1266 243.5,99.5C 241.931,102.866 239.264,104.032 235.5,103C 228.996,98.6589 223.33,93.4923 218.5,87.5C 225.687,77.7662 232.854,68.0996 240,58.5C 245.123,54.4159 248.623,49.2492 250.5,43C 251.075,36.0034 255.075,33.3367 262.5,35C 271.02,39.9888 271.687,45.9888 264.5,53C 262.5,53.6667 260.5,54.3333 258.5,55C 255.507,58.1413 253.174,61.6413 251.5,65.5 Z M 258.5,40.5 C 264.753,42.2828 265.086,44.9495 259.5,48.5C 255.125,45.9104 254.792,43.2437 258.5,40.5 Z"/></g>
<g><path style="opacity:0.999" fill="#1d1d1d" d="M 173.5,76.5 C 174.167,76.5 174.5,76.1667 174.5,75.5C 175.674,74.4863 176.34,73.153 176.5,71.5C 175.094,71.9731 174.427,72.9731 174.5,74.5C 165.865,75.8681 163.198,72.5348 166.5,64.5C 169.426,59.9002 172.76,55.5669 176.5,51.5C 177.689,50.5713 179.022,50.238 180.5,50.5C 177.561,45.501 178.894,41.8344 184.5,39.5C 190.594,42.7707 196.26,46.6041 201.5,51C 203.966,54.0062 204.133,57.1728 202,60.5C 193.348,71.1134 184.681,81.7801 176,92.5C 174.883,96.2521 174.05,100.085 173.5,104C 167.603,111.166 161.436,111.332 155,104.5C 152.373,96.7804 154.873,91.947 162.5,90C 166.763,85.9676 170.429,81.4676 173.5,76.5 Z M 180.5,50.5 C 182.5,50.5 183.5,51.5 183.5,53.5C 182.167,52.8333 181.167,51.8333 180.5,50.5 Z M 186.5,58.5 C 184.787,54.5389 185.454,53.8723 188.5,56.5C 188.145,57.5223 187.478,58.189 186.5,58.5 Z M 183.5,62.5 C 183.27,64.9828 182.603,65.4828 181.5,64C 181.836,62.9701 182.503,62.4701 183.5,62.5 Z M 178.5,69.5 C 178.517,67.9719 179.184,67.4719 180.5,68C 179.956,68.7172 179.289,69.2172 178.5,69.5 Z M 176.5,71.5 C 176.34,73.153 175.674,74.4863 174.5,75.5C 174.5,75.1667 174.5,74.8333 174.5,74.5C 174.427,72.9731 175.094,71.9731 176.5,71.5 Z M 163.5,95.5 C 169.839,97.8325 170.006,100.499 164,103.5C 159.544,101.031 159.377,98.3648 163.5,95.5 Z"/></g>
<g><path style="opacity:0.991" fill="#1f1f1f" d="M 251.5,65.5 C 255.344,66.6691 258.344,69.0024 260.5,72.5C 257.543,77.4476 254.376,82.1143 251,86.5C 249.116,89.3845 246.616,91.5512 243.5,93C 244.811,95.2735 244.811,97.4402 243.5,99.5C 243.657,98.1266 243.49,96.7932 243,95.5C 241.373,94.4677 240.207,93.1344 239.5,91.5C 240.833,91.1667 240.833,90.8333 239.5,90.5C 238.833,90.5 238.5,90.1667 238.5,89.5C 237.833,89.5 237.5,89.1667 237.5,88.5C 236.833,88.5 236.5,88.1667 236.5,87.5C 236.833,86.1667 237.167,84.8333 237.5,83.5C 238.674,82.4863 239.34,81.153 239.5,79.5C 240.167,79.5 240.5,79.1667 240.5,78.5C 241.167,78.5 241.5,78.1667 241.5,77.5C 242.167,77.5 242.5,77.1667 242.5,76.5C 243.167,76.5 243.5,76.1667 243.5,75.5C 244.167,75.5 244.5,75.1667 244.5,74.5C 245.89,73.1007 246.89,71.4341 247.5,69.5C 248.167,69.5 248.5,69.1667 248.5,68.5C 249.167,68.5 249.5,68.1667 249.5,67.5C 250.167,67.5 250.5,67.1667 250.5,66.5C 251.167,66.5 251.5,66.1667 251.5,65.5 Z"/></g>
<g><path style="opacity:0.439" fill="#454545" d="M 166.5,64.5 C 163.198,72.5348 165.865,75.8681 174.5,74.5C 174.5,74.8333 174.5,75.1667 174.5,75.5C 173.833,75.5 173.5,75.8333 173.5,76.5C 169.197,77.2038 165.697,75.8705 163,72.5C 162.52,69.1369 163.687,66.4703 166.5,64.5 Z"/></g>
<g><path style="opacity:0.995" fill="#1d1d1d" d="M 193.5,78.5 C 195.308,78.4914 196.975,78.9914 198.5,80C 209.845,88.4774 221.012,97.3107 232,106.5C 236.898,108.954 241.731,111.288 246.5,113.5C 250.755,121.99 248.255,127.323 239,129.5C 232.81,128.48 228.976,124.814 227.5,118.5C 224.093,115.084 220.426,112.084 216.5,109.5C 217.39,114.213 215.557,117.88 211,120.5C 204.136,116.489 197.636,111.822 191.5,106.5C 190.719,105.271 190.219,103.938 190,102.5C 188.116,104.576 185.949,104.91 183.5,103.5C 182.737,102.281 181.737,101.281 180.5,100.5C 179.572,99.2322 179.405,97.8989 180,96.5C 184.266,90.2913 188.766,84.2913 193.5,78.5 Z M 198.5,96.5 C 197.391,96.5569 196.391,96.8902 195.5,97.5C 195.921,93.0163 196.921,92.683 198.5,96.5 Z M 201.5,98.5 C 203.027,98.427 204.027,99.0937 204.5,100.5C 202.973,100.573 201.973,99.9063 201.5,98.5 Z M 209.5,104.5 C 210.289,104.783 210.956,105.283 211.5,106C 210.184,106.528 209.517,106.028 209.5,104.5 Z M 236.5,116.5 C 242.016,116.473 243.349,118.64 240.5,123C 235.791,123.082 234.458,120.915 236.5,116.5 Z"/></g>
<g><path style="opacity:0.894" fill="#1f1f1f" d="M 283.5,83.5 C 285.467,83.2606 287.301,83.5939 289,84.5C 290.626,90.3848 291.46,96.3848 291.5,102.5C 287.837,103.005 285.503,101.505 284.5,98C 283.234,97.6905 282.067,97.1905 281,96.5C 279.715,99.8036 277.548,100.47 274.5,98.5C 274.343,97.1266 274.51,95.7932 275,94.5C 278.326,91.1643 281.159,87.4977 283.5,83.5 Z"/></g>
<g><path style="opacity:0.729" fill="#161616" d="M 301.5,92.5 C 299.694,94.9025 298.694,98.2358 298.5,102.5C 297.5,102.5 296.5,102.5 295.5,102.5C 295.748,99.4196 296.414,96.4196 297.5,93.5C 297.253,92.2867 296.586,91.62 295.5,91.5C 294.504,91.5858 293.671,91.2524 293,90.5C 292.506,88.8659 292.34,87.1992 292.5,85.5C 297.545,86.1836 302.545,87.1836 307.5,88.5C 307.833,93.281 305.833,94.6143 301.5,92.5 Z"/></g>
<g><path style="opacity:0.498" fill="#444444" d="M 295.5,91.5 C 296.586,91.62 297.253,92.2867 297.5,93.5C 296.414,96.4196 295.748,99.4196 295.5,102.5C 296.5,102.5 297.5,102.5 298.5,102.5C 298.694,98.2358 299.694,94.9025 301.5,92.5C 300.833,96.8333 300.167,101.167 299.5,105.5C 297.5,105.167 295.5,104.833 293.5,104.5C 294.585,100.24 295.252,95.9062 295.5,91.5 Z"/></g>
<g><path style="opacity:0.994" fill="#222222" d="M 360.5,106.5 C 361.466,106.487 362.132,105.487 362.5,103.5C 363.325,102.614 364.325,102.281 365.5,102.5C 364.833,106.167 364.167,109.833 363.5,113.5C 363.739,115.467 363.406,117.301 362.5,119C 358.675,120.274 355.008,120.274 351.5,119C 350.228,117.693 349.228,116.193 348.5,114.5C 338.577,118.22 333.577,114.886 333.5,104.5C 330.845,106.444 329.511,109.11 329.5,112.5C 327.5,112.5 325.5,112.5 323.5,112.5C 324.342,109.502 324.842,106.502 325,103.5C 322.055,105.627 318.888,106.127 315.5,105C 314.663,106.011 314.33,107.178 314.5,108.5C 312.833,108.5 311.167,108.5 309.5,108.5C 309.973,102.777 311.306,97.2768 313.5,92C 317.157,91.9486 320.823,92.282 324.5,93C 326.435,98.6308 330.435,100.797 336.5,99.5C 336.351,100.552 336.517,101.552 337,102.5C 340.55,99.9166 344.05,100.083 347.5,103C 348.893,104.171 349.727,105.671 350,107.5C 353.341,105.332 356.841,104.998 360.5,106.5 Z M 317.5,98.5 C 318.721,97.5354 320.054,97.702 321.5,99C 320.072,99.5791 318.738,99.4124 317.5,98.5 Z M 340.5,106.5 C 343.166,106.066 344.333,107.066 344,109.5C 340.371,111.033 339.204,110.033 340.5,106.5 Z M 356.5,110.5 C 358.104,111.287 358.771,112.62 358.5,114.5C 354.437,114.384 353.77,113.051 356.5,110.5 Z"/></g>
<g><path style="opacity:0.651" fill="#4b4b4b" d="M 371.5,109.5 C 370.167,109.5 368.833,109.5 367.5,109.5C 366.833,112.833 366.167,116.167 365.5,119.5C 364.91,117.01 364.743,114.343 365,111.5C 364.722,112.416 364.222,113.082 363.5,113.5C 364.167,109.833 364.833,106.167 365.5,102.5C 364.325,102.281 363.325,102.614 362.5,103.5C 362.132,105.487 361.466,106.487 360.5,106.5C 360.172,100.632 362.339,99.2991 367,102.5C 366.981,104.107 366.815,105.774 366.5,107.5C 368.553,107.402 370.22,108.069 371.5,109.5 Z"/></g>
<g><path style="opacity:0.974" fill="#272727" d="M 371.5,109.5 C 371.173,111.488 370.84,113.488 370.5,115.5C 370.477,117.067 370.977,118.4 372,119.5C 374.05,116.852 375.216,113.852 375.5,110.5C 380.039,109.934 381.873,111.601 381,115.5C 384.578,113.234 388.412,112.9 392.5,114.5C 395.167,111.833 397.833,111.833 400.5,114.5C 400.291,115.086 399.957,115.586 399.5,116C 400.759,116.923 402.092,117.757 403.5,118.5C 402.494,119.396 402.494,120.062 403.5,120.5C 407.482,119.329 411.482,119.329 415.5,120.5C 415.683,122.936 415.016,125.103 413.5,127C 414.683,129.155 414.35,131.155 412.5,133C 406.638,133.952 400.972,133.285 395.5,131C 394.299,130.097 393.465,128.931 393,127.5C 394.153,120.146 391.319,117.813 384.5,120.5C 386.204,122.849 388.537,123.849 391.5,123.5C 391.714,125.144 391.38,126.644 390.5,128C 386.754,128.256 383.087,127.756 379.5,126.5C 379.663,124.143 379.497,121.81 379,119.5C 377.98,120.891 377.147,122.391 376.5,124C 373.036,124.817 369.702,124.483 366.5,123C 365.663,121.989 365.33,120.822 365.5,119.5C 366.167,116.167 366.833,112.833 367.5,109.5C 368.833,109.5 370.167,109.5 371.5,109.5 Z M 398.5,122.5 C 399.833,122.5 401.167,122.5 402.5,122.5C 402.286,124.144 402.62,125.644 403.5,127C 399.834,127.823 398.167,126.323 398.5,122.5 Z"/></g>
<g><path style="opacity:0.73" fill="#1c1c1c" d="M 422.5,120.5 C 424.5,120.5 426.5,120.5 428.5,120.5C 427.204,125.062 426.538,129.729 426.5,134.5C 429.244,135.205 431.911,135.205 434.5,134.5C 435.042,130.689 436.042,127.022 437.5,123.5C 438.736,124.246 440.07,124.579 441.5,124.5C 441.314,128.448 440.648,132.281 439.5,136C 441.569,137.523 443.903,138.357 446.5,138.5C 446.949,140.977 446.283,142.977 444.5,144.5C 436.596,141.801 428.596,139.468 420.5,137.5C 420.167,137 419.833,136.5 419.5,136C 421.102,130.95 422.102,125.783 422.5,120.5 Z"/></g>
<g><path style="opacity:0.872" fill="#252525" d="M 452.5,128.5 C 456.131,128.032 459.465,128.699 462.5,130.5C 463.76,132.353 463.76,134.186 462.5,136C 460.51,135.862 458.51,135.362 456.5,134.5C 454.261,134.574 453.261,135.741 453.5,138C 454.683,141.767 457.349,143.267 461.5,142.5C 461.167,144.5 460.833,146.5 460.5,148.5C 448.905,147.214 445.405,141.214 450,130.5C 450.995,129.934 451.828,129.267 452.5,128.5 Z"/></g>
<g><path style="opacity:1" fill="#510700" d="M -0.5,132.5 C 62.1667,132.5 124.833,132.5 187.5,132.5C 183.627,134.43 179.294,135.097 174.5,134.5C 156.5,134.5 138.5,134.5 120.5,134.5C 117.167,134.5 113.833,134.5 110.5,134.5C 83.8333,134.5 57.1667,134.5 30.5,134.5C 20.5,134.5 10.5,134.5 0.5,134.5C 0.5,137.833 0.5,141.167 0.5,144.5C 0.5,145.167 0.5,145.833 0.5,146.5C 0.166667,146.5 -0.166667,146.5 -0.5,146.5C -0.5,141.833 -0.5,137.167 -0.5,132.5 Z"/></g>
<g><path style="opacity:0.901" fill="#610800" d="M 187.5,132.5 C 194.167,132.5 200.833,132.5 207.5,132.5C 207.414,133.496 207.748,134.329 208.5,135C 211.639,135.754 214.639,136.754 217.5,138C 216.197,138.21 214.864,138.043 213.5,137.5C 211.425,139.83 208.758,140.997 205.5,141C 204.269,142.183 204.269,143.349 205.5,144.5C 209.156,143.589 212.656,142.256 216,140.5C 217.876,141.619 218.709,143.286 218.5,145.5C 216.167,145.5 213.833,145.5 211.5,145.5C 141.331,145.167 71.3313,145.501 1.5,146.5C 1.16667,146.5 0.833333,146.5 0.5,146.5C 0.5,145.833 0.5,145.167 0.5,144.5C 13.5,144.5 26.5,144.5 39.5,144.5C 62.8333,144.5 86.1667,144.5 109.5,144.5C 116.5,144.5 123.5,144.5 130.5,144.5C 143.5,144.5 156.5,144.5 169.5,144.5C 168.348,141.7 168.848,139.033 171,136.5C 172.851,137.537 174.017,136.87 174.5,134.5C 179.294,135.097 183.627,134.43 187.5,132.5 Z"/></g>
<g><path style="opacity:1" fill="#870c00" d="M 30.5,134.5 C 31.038,136.117 31.3713,137.784 31.5,139.5C 33.9806,139.677 35.8139,138.677 37,136.5C 38.6103,138.939 39.4436,141.606 39.5,144.5C 26.5,144.5 13.5,144.5 0.5,144.5C 0.5,141.167 0.5,137.833 0.5,134.5C 10.5,134.5 20.5,134.5 30.5,134.5 Z"/></g>
<g><path style="opacity:1" fill="#8d0d00" d="M 110.5,134.5 C 113.833,134.5 117.167,134.5 120.5,134.5C 124.375,136.197 127.875,138.531 131,141.5C 131.849,138.479 133.349,137.979 135.5,140C 133.308,141.067 131.642,142.567 130.5,144.5C 123.5,144.5 116.5,144.5 109.5,144.5C 109.616,141.14 109.949,137.807 110.5,134.5 Z"/></g>
<g><path style="opacity:1" fill="#7c0b00" d="M 120.5,134.5 C 138.5,134.5 156.5,134.5 174.5,134.5C 174.017,136.87 172.851,137.537 171,136.5C 168.848,139.033 168.348,141.7 169.5,144.5C 156.5,144.5 143.5,144.5 130.5,144.5C 131.642,142.567 133.308,141.067 135.5,140C 133.349,137.979 131.849,138.479 131,141.5C 127.875,138.531 124.375,136.197 120.5,134.5 Z"/></g>
<g><path style="opacity:1" fill="#550700" d="M 207.5,132.5 C 221.826,133.866 236.159,135.366 250.5,137C 253.457,137.279 256.123,138.113 258.5,139.5C 257.167,139.5 255.833,139.5 254.5,139.5C 254.5,140.5 254.5,141.5 254.5,142.5C 252.549,142.227 251.049,142.893 250,144.5C 248.495,147.228 248.662,149.561 250.5,151.5C 237.531,148.472 224.531,146.472 211.5,145.5C 213.833,145.5 216.167,145.5 218.5,145.5C 218.709,143.286 217.876,141.619 216,140.5C 212.656,142.256 209.156,143.589 205.5,144.5C 204.269,143.349 204.269,142.183 205.5,141C 208.758,140.997 211.425,139.83 213.5,137.5C 214.864,138.043 216.197,138.21 217.5,138C 214.639,136.754 211.639,135.754 208.5,135C 207.748,134.329 207.414,133.496 207.5,132.5 Z"/></g>
<g><path style="opacity:1" fill="#7e0c00" d="M 30.5,134.5 C 57.1667,134.5 83.8333,134.5 110.5,134.5C 109.949,137.807 109.616,141.14 109.5,144.5C 86.1667,144.5 62.8333,144.5 39.5,144.5C 39.4436,141.606 38.6103,138.939 37,136.5C 35.8139,138.677 33.9806,139.677 31.5,139.5C 31.3713,137.784 31.038,136.117 30.5,134.5 Z"/></g>
<g><path style="opacity:1" fill="#5d0800" d="M 258.5,139.5 C 264.643,139.937 270.643,141.104 276.5,143C 281.829,144.998 286.829,147.498 291.5,150.5C 287.473,150.281 286.806,151.448 289.5,154C 288.205,156.801 288.205,159.634 289.5,162.5C 288.675,163.386 287.675,163.719 286.5,163.5C 286.321,165.606 285.321,167.272 283.5,168.5C 283.002,167.397 282.669,166.397 282.5,165.5C 282.167,166.5 281.833,167.5 281.5,168.5C 282.919,172.016 283.586,175.682 283.5,179.5C 282.306,173.449 279.306,168.449 274.5,164.5C 273.746,161.909 272.079,160.076 269.5,159C 263.36,155.927 257.026,153.427 250.5,151.5C 248.662,149.561 248.495,147.228 250,144.5C 251.049,142.893 252.549,142.227 254.5,142.5C 254.5,141.5 254.5,140.5 254.5,139.5C 255.833,139.5 257.167,139.5 258.5,139.5 Z"/></g>
<g><path style="opacity:0.518" fill="#020000" d="M 211.5,145.5 C 224.531,146.472 237.531,148.472 250.5,151.5C 257.026,153.427 263.36,155.927 269.5,159C 272.079,160.076 273.746,161.909 274.5,164.5C 266.364,158.837 257.364,155.004 247.5,153C 238.365,150.441 229.032,149.107 219.5,149C 146.677,147.894 74.0107,147.06 1.5,146.5C 71.3313,145.501 141.331,145.167 211.5,145.5 Z"/></g>
<g><path style="opacity:1" fill="#9a0a02" d="M 31.5,151.5 C 33.5052,155.51 35.5052,159.51 37.5,163.5C 37.1667,164.5 36.8333,165.5 36.5,166.5C 35.5726,164.887 34.7393,163.221 34,161.5C 33.3333,162.167 32.6667,162.833 32,163.5C 31.8171,166.365 31.3171,169.031 30.5,171.5C 29.1667,170.167 27.8333,168.833 26.5,167.5C 25.8333,166.5 25.1667,165.5 24.5,164.5C 24.1583,163.662 23.4916,163.328 22.5,163.5C 22.5654,163.062 22.3988,162.728 22,162.5C 21.2904,163.973 20.1238,164.64 18.5,164.5C 18.5,163.5 18.5,162.5 18.5,161.5C 15.4359,161.144 12.7693,161.977 10.5,164C 12.4432,163.695 14.4432,163.695 16.5,164C 13.628,166.537 11.128,169.37 9,172.5C 8.82669,178.016 8.32669,183.349 7.5,188.5C 7.5,176.167 7.5,163.833 7.5,151.5C 15.5,150.167 23.5,150.167 31.5,151.5 Z"/></g>
<g><path style="opacity:1" fill="#920d03" d="M 121.5,153.5 C 120.502,177.994 120.169,202.661 120.5,227.5C 114.974,227.179 109.64,227.512 104.5,228.5C 104.167,228.5 103.833,228.5 103.5,228.5C 103.5,227.833 103.5,227.167 103.5,226.5C 108.833,226.5 114.167,226.5 119.5,226.5C 119.5,222.833 119.5,219.167 119.5,215.5C 119.5,205.833 119.5,196.167 119.5,186.5C 119.666,180.824 119.499,175.157 119,169.5C 116.964,168.898 115.13,167.898 113.5,166.5C 112.167,168.167 110.833,169.833 109.5,171.5C 108.264,172.246 106.93,172.579 105.5,172.5C 105.261,170.533 105.594,168.699 106.5,167C 105.423,166.53 104.423,166.697 103.5,167.5C 103.657,166.127 103.49,164.793 103,163.5C 102.283,164.044 101.783,164.711 101.5,165.5C 100.136,167.191 98.803,168.858 97.5,170.5C 97.1961,169.85 96.8627,169.183 96.5,168.5C 97.5153,165.978 98.8487,163.644 100.5,161.5C 99.132,160.406 97.9653,160.74 97,162.5C 96.2411,160.365 94.7411,159.032 92.5,158.5C 91.479,159.002 91.3123,159.668 92,160.5C 96.7026,163.748 96.2026,164.748 90.5,163.5C 89.6143,164.325 89.281,165.325 89.5,166.5C 87.8333,166.5 86.1667,166.5 84.5,166.5C 88.3635,161.297 92.3635,156.13 96.5,151C 104.827,150.5 113.16,150.334 121.5,150.5C 121.5,151.5 121.5,152.5 121.5,153.5 Z"/></g>
<g><path style="opacity:1" fill="#730b00" d="M 158.5,153.5 C 157.509,160.313 157.175,167.313 157.5,174.5C 156.674,170.018 156.174,165.351 156,160.5C 154.622,162.854 153.122,162.854 151.5,160.5C 149.004,161.53 146.837,160.863 145,158.5C 144.837,160.387 145.671,161.887 147.5,163C 146.667,163.833 145.833,164.667 145,165.5C 143.333,162.833 141.667,160.167 140,157.5C 139.805,159.207 139.805,160.874 140,162.5C 139.333,161.167 138.667,161.167 138,162.5C 137.667,161.5 137.333,160.5 137,159.5C 135.829,160.893 134.329,161.727 132.5,162C 133.257,163.512 134.257,164.846 135.5,166C 133.064,166.124 130.731,165.624 128.5,164.5C 128.5,160.167 128.5,155.833 128.5,151.5C 138.319,150.506 148.319,150.173 158.5,150.5C 158.5,151.5 158.5,152.5 158.5,153.5 Z"/></g>
<g><path style="opacity:0.254" fill="#030101" d="M 121.5,153.5 C 122.832,165.815 123.499,178.482 123.5,191.5C 123.333,204.167 123.167,216.833 123,229.5C 119.919,230.146 116.752,230.479 113.5,230.5C 110.087,230.483 107.087,229.816 104.5,228.5C 109.64,227.512 114.974,227.179 120.5,227.5C 120.169,202.661 120.502,177.994 121.5,153.5 Z"/></g>
<g><path style="opacity:0.172" fill="#020000" d="M 158.5,153.5 C 160.489,174.808 161.156,196.474 160.5,218.5C 160.167,218.5 159.833,218.5 159.5,218.5C 157.517,204.205 156.85,189.538 157.5,174.5C 157.175,167.313 157.509,160.313 158.5,153.5 Z"/></g>
<g><path style="opacity:1" fill="#710a00" d="M 291.5,150.5 C 298.174,153.514 303.841,157.847 308.5,163.5C 306.393,163.278 304.726,162.278 303.5,160.5C 302.124,163.238 300.124,165.405 297.5,167C 298.91,167.368 299.91,168.201 300.5,169.5C 299.726,170.711 298.893,170.711 298,169.5C 297.355,170.646 296.522,171.646 295.5,172.5C 296.478,175.996 295.644,176.33 293,173.5C 291.829,174.893 290.329,175.727 288.5,176C 289.654,176.914 289.487,177.747 288,178.5C 287,177.833 286,177.167 285,176.5C 284.814,179.036 284.314,181.369 283.5,183.5C 283.5,182.167 283.5,180.833 283.5,179.5C 283.586,175.682 282.919,172.016 281.5,168.5C 281.833,167.5 282.167,166.5 282.5,165.5C 282.669,166.397 283.002,167.397 283.5,168.5C 285.321,167.272 286.321,165.606 286.5,163.5C 287.675,163.719 288.675,163.386 289.5,162.5C 288.205,159.634 288.205,156.801 289.5,154C 286.806,151.448 287.473,150.281 291.5,150.5 Z"/></g>
<g><path style="opacity:1" fill="#8c0f07" d="M 31.5,151.5 C 42.4901,165.655 53.6567,179.655 65,193.5C 68.0395,188.731 71.5395,184.397 75.5,180.5C 75.0805,182.094 74.4138,183.594 73.5,185C 73.9054,185.945 74.572,186.612 75.5,187C 73.8659,187.494 72.1992,187.66 70.5,187.5C 69.6475,191.359 67.3142,194.026 63.5,195.5C 62.1634,194.685 61.1634,193.518 60.5,192C 59.552,191.517 58.552,191.351 57.5,191.5C 57.7768,186.761 55.7768,185.095 51.5,186.5C 50.4151,184.418 48.9151,184.084 47,185.5C 47.4866,183.956 47.9866,182.29 48.5,180.5C 49.552,180.649 50.552,180.483 51.5,180C 50.2567,178.846 49.2567,177.512 48.5,176C 45.8954,174.556 43.7288,174.723 42,176.5C 41.5,176.167 41,175.833 40.5,175.5C 41.9507,174.094 43.2841,172.594 44.5,171C 44,170.5 43.5,170 43,169.5C 41.5093,171.004 39.676,171.837 37.5,172C 37.8333,172.333 38.1667,172.667 38.5,173C 36.8243,174.177 35.4909,175.677 34.5,177.5C 37.8849,180.943 40.2182,184.943 41.5,189.5C 38.4485,185.777 35.7819,181.777 33.5,177.5C 32.5294,175.517 31.5294,173.517 30.5,171.5C 31.3171,169.031 31.8171,166.365 32,163.5C 32.6667,162.833 33.3333,162.167 34,161.5C 34.7393,163.221 35.5726,164.887 36.5,166.5C 36.8333,165.5 37.1667,164.5 37.5,163.5C 35.5052,159.51 33.5052,155.51 31.5,151.5 Z"/></g>
<g><path style="opacity:0.514" fill="#030101" d="M 24.5,164.5 C 25.1667,165.5 25.8333,166.5 26.5,167.5C 26.5,167.833 26.5,168.167 26.5,168.5C 25.5028,188.993 25.1695,209.66 25.5,230.5C 19.7291,231.113 14.3958,230.446 9.5,228.5C 13.97,227.514 18.6367,227.181 23.5,227.5C 23.1694,206.327 23.5027,185.327 24.5,164.5 Z"/></g>
<g><path style="opacity:0.447" fill="#0a0100" d="M 101.5,165.5 C 102.451,166.919 102.784,168.585 102.5,170.5C 92.0812,184.766 81.4145,198.933 70.5,213C 66.8333,213.667 63.1667,213.667 59.5,213C 58.944,212.617 58.6107,212.117 58.5,211.5C 61.8333,210.833 65.1667,210.167 68.5,209.5C 70.1921,207.795 71.5254,205.795 72.5,203.5C 81.1861,192.808 89.5194,181.808 97.5,170.5C 98.803,168.858 100.136,167.191 101.5,165.5 Z"/></g>
<g><path style="opacity:1" fill="#940e00" d="M 157.5,174.5 C 156.85,189.538 157.517,204.205 159.5,218.5C 159.5,219.167 159.5,219.833 159.5,220.5C 158.504,220.586 157.671,220.252 157,219.5C 156.502,216.183 156.335,212.85 156.5,209.5C 156.5,207.5 156.5,205.5 156.5,203.5C 156.5,196.5 156.5,189.5 156.5,182.5C 156.663,180.143 156.497,177.81 156,175.5C 150.328,175.92 144.495,176.586 138.5,177.5C 135.551,176.698 132.551,176.364 129.5,176.5C 129.5,179.167 129.5,181.833 129.5,184.5C 129.5,190.833 129.5,197.167 129.5,203.5C 129.5,206.167 129.5,208.833 129.5,211.5C 129.5,217.833 129.5,224.167 129.5,230.5C 128.503,208.673 128.169,186.673 128.5,164.5C 130.731,165.624 133.064,166.124 135.5,166C 134.257,164.846 133.257,163.512 132.5,162C 134.329,161.727 135.829,160.893 137,159.5C 137.333,160.5 137.667,161.5 138,162.5C 138.667,161.167 139.333,161.167 140,162.5C 139.805,160.874 139.805,159.207 140,157.5C 141.667,160.167 143.333,162.833 145,165.5C 145.833,164.667 146.667,163.833 147.5,163C 145.671,161.887 144.837,160.387 145,158.5C 146.837,160.863 149.004,161.53 151.5,160.5C 153.122,162.854 154.622,162.854 156,160.5C 156.174,165.351 156.674,170.018 157.5,174.5 Z"/></g>
<g><path style="opacity:0.269" fill="#630c06" d="M 26.5,167.5 C 27.8333,168.833 29.1667,170.167 30.5,171.5C 31.5294,173.517 32.5294,175.517 33.5,177.5C 30.8154,174.81 28.4821,171.81 26.5,168.5C 26.5,168.167 26.5,167.833 26.5,167.5 Z"/></g>
<g><path style="opacity:1" fill="#940c00" d="M 312.5,188.5 C 312.293,191.241 311.293,193.574 309.5,195.5C 309.357,193.738 309.691,192.071 310.5,190.5C 310.043,189.702 309.376,189.369 308.5,189.5C 307.593,186.196 306.093,185.862 304,188.5C 299.935,187.696 296.102,186.363 292.5,184.5C 293.552,181.807 294.552,179.14 295.5,176.5C 298.144,176.84 300.477,176.173 302.5,174.5C 306.079,175.843 307.579,178.176 307,181.5C 308.011,182.337 309.178,182.67 310.5,182.5C 310.523,180.073 311.023,177.74 312,175.5C 312.499,179.821 312.666,184.154 312.5,188.5 Z"/></g>
<g><path style="opacity:1" fill="#bd180d" d="M 22.5,163.5 C 22.5,170.833 22.5,178.167 22.5,185.5C 18.8558,186.086 15.5225,186.752 12.5,187.5C 12.9767,188.478 13.6433,189.311 14.5,190C 12.3348,191.564 10.6681,191.397 9.5,189.5C 8.50097,201.815 8.16764,214.149 8.5,226.5C 7.50465,214.011 7.17132,201.344 7.5,188.5C 8.32669,183.349 8.82669,178.016 9,172.5C 11.128,169.37 13.628,166.537 16.5,164C 14.4432,163.695 12.4432,163.695 10.5,164C 12.7693,161.977 15.4359,161.144 18.5,161.5C 18.5,162.5 18.5,163.5 18.5,164.5C 20.1238,164.64 21.2904,163.973 22,162.5C 22.3988,162.728 22.5654,163.062 22.5,163.5 Z"/></g>
<g><path style="opacity:0.352" fill="#100200" d="M 312.5,170.5 C 313.892,172.273 315.059,174.273 316,176.5C 316.667,181.833 316.667,187.167 316,192.5C 308.598,206.567 297.431,216.4 282.5,222C 258.056,230.079 233.056,234.246 207.5,234.5C 181.833,234.5 156.167,234.5 130.5,234.5C 130.5,233.833 130.5,233.167 130.5,232.5C 130.5,231.833 130.5,231.167 130.5,230.5C 144.833,230.5 159.167,230.5 173.5,230.5C 190.195,230.775 206.861,230.441 223.5,229.5C 250.131,229.503 274.797,222.836 297.5,209.5C 302.617,205.722 306.617,201.055 309.5,195.5C 311.293,193.574 312.293,191.241 312.5,188.5C 313.621,182.345 313.621,176.345 312.5,170.5 Z"/></g>
<g><path style="opacity:1" fill="#be0e01" d="M 119.5,186.5 C 115.713,185.814 112.546,186.814 110,189.5C 108.293,188.862 106.46,188.862 104.5,189.5C 104.737,190.791 104.404,191.791 103.5,192.5C 103.5,184.167 103.5,175.833 103.5,167.5C 104.423,166.697 105.423,166.53 106.5,167C 105.594,168.699 105.261,170.533 105.5,172.5C 106.93,172.579 108.264,172.246 109.5,171.5C 110.833,169.833 112.167,168.167 113.5,166.5C 115.13,167.898 116.964,168.898 119,169.5C 119.499,175.157 119.666,180.824 119.5,186.5 Z"/></g>
<g><path style="opacity:1" fill="#860b00" d="M 308.5,163.5 C 310.098,165.698 311.431,168.031 312.5,170.5C 313.621,176.345 313.621,182.345 312.5,188.5C 312.666,184.154 312.499,179.821 312,175.5C 311.023,177.74 310.523,180.073 310.5,182.5C 309.178,182.67 308.011,182.337 307,181.5C 307.579,178.176 306.079,175.843 302.5,174.5C 300.477,176.173 298.144,176.84 295.5,176.5C 294.552,179.14 293.552,181.807 292.5,184.5C 291.215,185.785 289.881,187.119 288.5,188.5C 287.416,187.335 286.583,186.002 286,184.5C 285.667,186.167 285.333,187.833 285,189.5C 284.667,189.167 284.333,188.833 284,188.5C 283.583,189.756 282.75,190.423 281.5,190.5C 282.167,188.167 282.833,185.833 283.5,183.5C 284.314,181.369 284.814,179.036 285,176.5C 286,177.167 287,177.833 288,178.5C 289.487,177.747 289.654,176.914 288.5,176C 290.329,175.727 291.829,174.893 293,173.5C 295.644,176.33 296.478,175.996 295.5,172.5C 296.522,171.646 297.355,170.646 298,169.5C 298.893,170.711 299.726,170.711 300.5,169.5C 299.91,168.201 298.91,167.368 297.5,167C 300.124,165.405 302.124,163.238 303.5,160.5C 304.726,162.278 306.393,163.278 308.5,163.5 Z"/></g>
<g><path style="opacity:1" fill="#ae190f" d="M 51.5,186.5 C 50.0303,189.318 49.0303,192.318 48.5,195.5C 46.8122,193.146 44.8122,191.146 42.5,189.5C 42.1667,189.5 41.8333,189.5 41.5,189.5C 40.2182,184.943 37.8849,180.943 34.5,177.5C 35.4909,175.677 36.8243,174.177 38.5,173C 38.1667,172.667 37.8333,172.333 37.5,172C 39.676,171.837 41.5093,171.004 43,169.5C 43.5,170 44,170.5 44.5,171C 43.2841,172.594 41.9507,174.094 40.5,175.5C 41,175.833 41.5,176.167 42,176.5C 43.7288,174.723 45.8954,174.556 48.5,176C 49.2567,177.512 50.2567,178.846 51.5,180C 50.552,180.483 49.552,180.649 48.5,180.5C 47.9866,182.29 47.4866,183.956 47,185.5C 48.9151,184.084 50.4151,184.418 51.5,186.5 Z"/></g>
<g><path style="opacity:1" fill="#b91500" d="M 156.5,182.5 C 153.664,183.704 150.831,185.038 148,186.5C 146.354,184.859 145.354,185.193 145,187.5C 143.031,187.198 141.697,186.198 141,184.5C 139.144,185.736 137.311,185.736 135.5,184.5C 134.304,184.846 134.304,185.346 135.5,186C 133.126,186.743 131.126,186.243 129.5,184.5C 129.5,181.833 129.5,179.167 129.5,176.5C 132.551,176.364 135.551,176.698 138.5,177.5C 144.495,176.586 150.328,175.92 156,175.5C 156.497,177.81 156.663,180.143 156.5,182.5 Z"/></g>
<g><path style="opacity:0.318" fill="#380e07" d="M 128.5,151.5 C 128.5,155.833 128.5,160.167 128.5,164.5C 128.169,186.673 128.503,208.673 129.5,230.5C 129.833,230.5 130.167,230.5 130.5,230.5C 130.5,231.167 130.5,231.833 130.5,232.5C 129.504,232.586 128.671,232.252 128,231.5C 127.17,204.664 127.336,177.997 128.5,151.5 Z"/></g>
<g><path style="opacity:1" fill="#a30e00" d="M 292.5,184.5 C 296.102,186.363 299.935,187.696 304,188.5C 306.093,185.862 307.593,186.196 308.5,189.5C 306.298,193.245 303.465,193.911 300,191.5C 297.879,193.457 295.379,193.957 292.5,193C 291.601,191.764 290.434,190.93 289,190.5C 286.943,191.723 284.777,192.723 282.5,193.5C 283.32,195.111 284.654,195.778 286.5,195.5C 286.5,196.5 286.5,197.5 286.5,198.5C 283.813,198.336 281.146,198.503 278.5,199C 277.944,199.383 277.611,199.883 277.5,200.5C 276.078,201.925 274.411,202.925 272.5,203.5C 274.461,201.037 276.628,198.703 279,196.5C 280.559,194.783 281.392,192.783 281.5,190.5C 282.75,190.423 283.583,189.756 284,188.5C 284.333,188.833 284.667,189.167 285,189.5C 285.333,187.833 285.667,186.167 286,184.5C 286.583,186.002 287.416,187.335 288.5,188.5C 289.881,187.119 291.215,185.785 292.5,184.5 Z"/></g>
<g><path style="opacity:1" fill="#d11f00" d="M 156.5,182.5 C 156.5,189.5 156.5,196.5 156.5,203.5C 155.661,202.359 154.994,201.026 154.5,199.5C 153.675,198.614 152.675,198.281 151.5,198.5C 151.762,199.978 151.429,201.311 150.5,202.5C 146.833,201.167 143.167,201.167 139.5,202.5C 138.389,201.389 137.055,200.722 135.5,200.5C 133.668,201.821 131.668,202.821 129.5,203.5C 129.5,197.167 129.5,190.833 129.5,184.5C 131.126,186.243 133.126,186.743 135.5,186C 134.304,185.346 134.304,184.846 135.5,184.5C 137.311,185.736 139.144,185.736 141,184.5C 141.697,186.198 143.031,187.198 145,187.5C 145.354,185.193 146.354,184.859 148,186.5C 150.831,185.038 153.664,183.704 156.5,182.5 Z"/></g>
<g><path style="opacity:1" fill="#bd1307" d="M 97.5,170.5 C 89.5194,181.808 81.1861,192.808 72.5,203.5C 72.8134,200.753 72.48,198.086 71.5,195.5C 68.8288,197.831 66.1622,197.831 63.5,195.5C 67.3142,194.026 69.6475,191.359 70.5,187.5C 72.1992,187.66 73.8659,187.494 75.5,187C 74.572,186.612 73.9054,185.945 73.5,185C 74.4138,183.594 75.0805,182.094 75.5,180.5C 78.2233,175.644 81.2233,170.977 84.5,166.5C 86.1667,166.5 87.8333,166.5 89.5,166.5C 89.281,165.325 89.6143,164.325 90.5,163.5C 96.2026,164.748 96.7026,163.748 92,160.5C 91.3123,159.668 91.479,159.002 92.5,158.5C 94.7411,159.032 96.2411,160.365 97,162.5C 97.9653,160.74 99.132,160.406 100.5,161.5C 98.8487,163.644 97.5153,165.978 96.5,168.5C 96.8627,169.183 97.1961,169.85 97.5,170.5 Z"/></g>
<g><path style="opacity:1" fill="#d02418" d="M 63.5,195.5 C 66.1622,197.831 68.8288,197.831 71.5,195.5C 72.48,198.086 72.8134,200.753 72.5,203.5C 71.5254,205.795 70.1921,207.795 68.5,209.5C 64.774,209.823 61.1073,209.489 57.5,208.5C 56.1905,205.549 54.1905,203.216 51.5,201.5C 50.4706,199.483 49.4706,197.483 48.5,195.5C 49.0303,192.318 50.0303,189.318 51.5,186.5C 55.7768,185.095 57.7768,186.761 57.5,191.5C 58.552,191.351 59.552,191.517 60.5,192C 61.1634,193.518 62.1634,194.685 63.5,195.5 Z"/></g>
<g><path style="opacity:1" fill="#b70f00" d="M 308.5,189.5 C 309.376,189.369 310.043,189.702 310.5,190.5C 309.691,192.071 309.357,193.738 309.5,195.5C 306.617,201.055 302.617,205.722 297.5,209.5C 294.621,207.319 292.288,204.486 290.5,201C 291.647,198.915 290.98,197.415 288.5,196.5C 287.962,198.764 288.296,201.097 289.5,203.5C 286.724,207.336 283.057,208.336 278.5,206.5C 278.98,204.051 279.98,201.885 281.5,200C 280.181,199.805 278.847,199.972 277.5,200.5C 277.611,199.883 277.944,199.383 278.5,199C 281.146,198.503 283.813,198.336 286.5,198.5C 286.5,197.5 286.5,196.5 286.5,195.5C 284.654,195.778 283.32,195.111 282.5,193.5C 284.777,192.723 286.943,191.723 289,190.5C 290.434,190.93 291.601,191.764 292.5,193C 295.379,193.957 297.879,193.457 300,191.5C 303.465,193.911 306.298,193.245 308.5,189.5 Z"/></g>
<g><path style="opacity:0.231" fill="#671610" d="M 42.5,189.5 C 44.8122,191.146 46.8122,193.146 48.5,195.5C 49.4706,197.483 50.4706,199.483 51.5,201.5C 50.5041,201.586 49.6708,201.252 49,200.5C 46.5588,196.916 44.3922,193.25 42.5,189.5 Z"/></g>
<g><path style="opacity:1" fill="#e1280d" d="M 119.5,186.5 C 119.5,196.167 119.5,205.833 119.5,215.5C 118.5,215.5 117.5,215.5 116.5,215.5C 117.863,209.41 115.863,204.91 110.5,202C 107.823,201.832 105.49,200.999 103.5,199.5C 103.5,197.167 103.5,194.833 103.5,192.5C 104.404,191.791 104.737,190.791 104.5,189.5C 106.46,188.862 108.293,188.862 110,189.5C 112.546,186.814 115.713,185.814 119.5,186.5 Z"/></g>
<g><path style="opacity:0.333" fill="#751009" d="M 7.5,151.5 C 7.5,163.833 7.5,176.167 7.5,188.5C 7.17132,201.344 7.50465,214.011 8.5,226.5C 13.1667,226.5 17.8333,226.5 22.5,226.5C 22.5,212.833 22.5,199.167 22.5,185.5C 22.5,178.167 22.5,170.833 22.5,163.5C 23.4916,163.328 24.1583,163.662 24.5,164.5C 23.5027,185.327 23.1694,206.327 23.5,227.5C 18.6367,227.181 13.97,227.514 9.5,228.5C 8.5,228.5 7.5,228.5 6.5,228.5C 6.16889,202.661 6.50223,176.995 7.5,151.5 Z"/></g>
<g><path style="opacity:1" fill="#d71b0e" d="M 22.5,185.5 C 22.5,199.167 22.5,212.833 22.5,226.5C 17.8333,226.5 13.1667,226.5 8.5,226.5C 8.16764,214.149 8.50097,201.815 9.5,189.5C 10.6681,191.397 12.3348,191.564 14.5,190C 13.6433,189.311 12.9767,188.478 12.5,187.5C 15.5225,186.752 18.8558,186.086 22.5,185.5 Z"/></g>
<g><path style="opacity:1" fill="#e92101" d="M 156.5,203.5 C 156.5,205.5 156.5,207.5 156.5,209.5C 155.842,208.602 155.176,207.602 154.5,206.5C 151.35,210.178 150.683,214.344 152.5,219C 152.333,219.5 152.167,220 152,220.5C 149.756,216.277 148.59,216.611 148.5,221.5C 147.5,221.5 146.5,221.5 145.5,221.5C 145.539,223.359 144.706,224.692 143,225.5C 139.677,224.59 136.51,223.257 133.5,221.5C 134.167,220.833 134.833,220.167 135.5,219.5C 132.812,217.21 130.812,214.544 129.5,211.5C 129.5,208.833 129.5,206.167 129.5,203.5C 131.668,202.821 133.668,201.821 135.5,200.5C 137.055,200.722 138.389,201.389 139.5,202.5C 143.167,201.167 146.833,201.167 150.5,202.5C 151.429,201.311 151.762,199.978 151.5,198.5C 152.675,198.281 153.675,198.614 154.5,199.5C 154.994,201.026 155.661,202.359 156.5,203.5 Z"/></g>
<g><path style="opacity:0.008" fill="#60130e" d="M 51.5,201.5 C 54.1905,203.216 56.1905,205.549 57.5,208.5C 61.1073,209.489 64.774,209.823 68.5,209.5C 65.1667,210.167 61.8333,210.833 58.5,211.5C 55.1772,208.853 52.8439,205.519 51.5,201.5 Z"/></g>
<g><path style="opacity:0.749" fill="#900e03" d="M 253.5,212.5 C 250.314,214.874 246.647,215.874 242.5,215.5C 245.799,213.517 249.466,212.517 253.5,212.5 Z"/></g>
<g><path style="opacity:0.766" fill="#34130e" d="M 103.5,167.5 C 103.5,175.833 103.5,184.167 103.5,192.5C 103.5,194.833 103.5,197.167 103.5,199.5C 103.5,208.5 103.5,217.5 103.5,226.5C 103.5,227.167 103.5,227.833 103.5,228.5C 102.503,209.341 102.17,190.007 102.5,170.5C 102.784,168.585 102.451,166.919 101.5,165.5C 101.783,164.711 102.283,164.044 103,163.5C 103.49,164.793 103.657,166.127 103.5,167.5 Z"/></g>
<g><path style="opacity:0.999" fill="#d31300" d="M 297.5,209.5 C 274.797,222.836 250.131,229.503 223.5,229.5C 226.962,228.518 230.629,228.185 234.5,228.5C 234.5,225.167 234.5,221.833 234.5,218.5C 232.265,218.795 230.265,218.461 228.5,217.5C 233.1,217.72 237.433,217.054 241.5,215.5C 241.833,215.5 242.167,215.5 242.5,215.5C 246.647,215.874 250.314,214.874 253.5,212.5C 259.981,209.759 266.314,206.759 272.5,203.5C 274.411,202.925 276.078,201.925 277.5,200.5C 278.847,199.972 280.181,199.805 281.5,200C 279.98,201.885 278.98,204.051 278.5,206.5C 283.057,208.336 286.724,207.336 289.5,203.5C 288.296,201.097 287.962,198.764 288.5,196.5C 290.98,197.415 291.647,198.915 290.5,201C 292.288,204.486 294.621,207.319 297.5,209.5 Z"/></g>
<g><path style="opacity:0.976" fill="#961104" d="M 241.5,215.5 C 237.433,217.054 233.1,217.72 228.5,217.5C 228.167,217.5 227.833,217.5 227.5,217.5C 231.919,216.028 236.586,215.362 241.5,215.5 Z"/></g>
<g><path style="opacity:1" fill="#ed4225" d="M 103.5,199.5 C 105.49,200.999 107.823,201.832 110.5,202C 115.863,204.91 117.863,209.41 116.5,215.5C 117.5,215.5 118.5,215.5 119.5,215.5C 119.5,219.167 119.5,222.833 119.5,226.5C 114.167,226.5 108.833,226.5 103.5,226.5C 103.5,217.5 103.5,208.5 103.5,199.5 Z"/></g>
<g><path style="opacity:0.976" fill="#c81b04" d="M 159.5,218.5 C 159.833,218.5 160.167,218.5 160.5,218.5C 178.5,218.5 196.5,218.5 214.5,218.5C 211.031,219.253 207.698,220.586 204.5,222.5C 189.614,220.567 174.614,219.901 159.5,220.5C 159.5,219.833 159.5,219.167 159.5,218.5 Z"/></g>
<g><path style="opacity:1" fill="#e32309" d="M 156.5,209.5 C 156.335,212.85 156.502,216.183 157,219.5C 157.671,220.252 158.504,220.586 159.5,220.5C 159.354,222.942 160.187,223.609 162,222.5C 162.483,223.448 162.649,224.448 162.5,225.5C 163.822,225.33 164.989,225.663 166,226.5C 166.293,223.046 167.626,222.712 170,225.5C 171.793,224.619 172.46,225.286 172,227.5C 170.951,226.483 169.784,226.316 168.5,227C 170.183,228.286 171.849,229.453 173.5,230.5C 159.167,230.5 144.833,230.5 130.5,230.5C 130.167,230.5 129.833,230.5 129.5,230.5C 129.5,224.167 129.5,217.833 129.5,211.5C 130.812,214.544 132.812,217.21 135.5,219.5C 134.833,220.167 134.167,220.833 133.5,221.5C 136.51,223.257 139.677,224.59 143,225.5C 144.706,224.692 145.539,223.359 145.5,221.5C 146.5,221.5 147.5,221.5 148.5,221.5C 148.59,216.611 149.756,216.277 152,220.5C 152.167,220 152.333,219.5 152.5,219C 150.683,214.344 151.35,210.178 154.5,206.5C 155.176,207.602 155.842,208.602 156.5,209.5 Z"/></g>
<g><path style="opacity:1" fill="#ec2208" d="M 227.5,217.5 C 227.833,217.5 228.167,217.5 228.5,217.5C 230.265,218.461 232.265,218.795 234.5,218.5C 234.5,221.833 234.5,225.167 234.5,228.5C 230.629,228.185 226.962,228.518 223.5,229.5C 206.861,230.441 190.195,230.775 173.5,230.5C 171.849,229.453 170.183,228.286 168.5,227C 169.784,226.316 170.951,226.483 172,227.5C 172.46,225.286 171.793,224.619 170,225.5C 167.626,222.712 166.293,223.046 166,226.5C 164.989,225.663 163.822,225.33 162.5,225.5C 162.649,224.448 162.483,223.448 162,222.5C 160.187,223.609 159.354,222.942 159.5,220.5C 174.614,219.901 189.614,220.567 204.5,222.5C 207.698,220.586 211.031,219.253 214.5,218.5C 218.798,217.8 223.131,217.467 227.5,217.5 Z"/></g>
<g><path style="opacity:0.322" fill="#751708" d="M 3.5,235.5 C 45.6634,234.501 87.9967,234.168 130.5,234.5C 156.167,234.5 181.833,234.5 207.5,234.5C 236.835,234.333 266.169,234.5 295.5,235C 296.738,235.69 296.738,236.19 295.5,236.5C 198.195,235.507 100.862,235.174 3.5,235.5 Z"/></g>
<g><path style="opacity:0.973" fill="#c4230b" d="M 3.5,235.5 C 100.862,235.174 198.195,235.507 295.5,236.5C 295.5,236.833 295.5,237.167 295.5,237.5C 294.549,238.919 294.216,240.585 294.5,242.5C 292.058,242.881 291.391,242.214 292.5,240.5C 291.471,240.704 290.471,240.204 289.5,239C 289.833,238.667 290.167,238.333 290.5,238C 289.167,237.667 287.833,237.333 286.5,237C 273.171,236.5 259.837,236.333 246.5,236.5C 229.833,236.5 213.167,236.5 196.5,236.5C 193.5,236.5 190.5,236.5 187.5,236.5C 147.5,236.5 107.5,236.5 67.5,236.5C 51.8333,236.5 36.1667,236.5 20.5,236.5C 15.1667,236.5 9.83333,236.5 4.5,236.5C 4.79472,238.735 4.46138,240.735 3.5,242.5C 3.5,240.167 3.5,237.833 3.5,235.5 Z"/></g>
<g><path style="opacity:1" fill="#dc2006" d="M 246.5,236.5 C 259.837,236.333 273.171,236.5 286.5,237C 287.833,237.333 289.167,237.667 290.5,238C 290.167,238.333 289.833,238.667 289.5,239C 290.471,240.204 291.471,240.704 292.5,240.5C 291.391,242.214 292.058,242.881 294.5,242.5C 294.5,245.833 294.5,249.167 294.5,252.5C 293.027,253.74 291.36,254.74 289.5,255.5C 285.884,253.193 281.884,252.027 277.5,252C 278.196,250.512 277.862,249.012 276.5,247.5C 275.232,248.428 273.899,248.595 272.5,248C 270.667,246.167 268.833,244.333 267,242.5C 266.601,242.728 266.435,243.062 266.5,243.5C 259.485,242.067 252.485,240.234 245.5,238C 246.056,237.617 246.389,237.117 246.5,236.5 Z"/></g>
<g><path style="opacity:0.617" fill="#000000" d="M 368.5,236.5 C 369.833,236.5 371.167,236.5 372.5,236.5C 372.99,238.948 372.157,240.615 370,241.5C 367.389,240.5 366.889,238.833 368.5,236.5 Z"/></g>
<g><path style="opacity:0.427" fill="#160e06" d="M 295.5,237.5 C 297.48,249.455 298.146,261.788 297.5,274.5C 200.167,274.5 102.833,274.5 5.5,274.5C 5.5,274.167 5.5,273.833 5.5,273.5C 12.4238,271.537 19.7572,270.87 27.5,271.5C 31.5,271.5 35.5,271.5 39.5,271.5C 45.5,271.5 51.5,271.5 57.5,271.5C 81.5,271.5 105.5,271.5 129.5,271.5C 136.167,271.5 142.833,271.5 149.5,271.5C 183.833,271.5 218.167,271.5 252.5,271.5C 257.833,271.5 263.167,271.5 268.5,271.5C 271.833,271.5 275.167,271.5 278.5,271.5C 283.833,271.5 289.167,271.5 294.5,271.5C 294.5,267.833 294.5,264.167 294.5,260.5C 294.5,257.833 294.5,255.167 294.5,252.5C 294.5,249.167 294.5,245.833 294.5,242.5C 294.216,240.585 294.549,238.919 295.5,237.5 Z"/></g>
<g><path style="opacity:1" fill="#e13716" d="M 67.5,236.5 C 107.5,236.5 147.5,236.5 187.5,236.5C 186.198,238.028 184.531,239.028 182.5,239.5C 181.517,243.298 181.183,247.298 181.5,251.5C 180.5,251.5 179.5,251.5 178.5,251.5C 178.737,250.209 178.404,249.209 177.5,248.5C 168.12,245.67 158.787,245.837 149.5,249C 147.804,250.176 146.138,251.343 144.5,252.5C 142.194,252.993 139.861,253.326 137.5,253.5C 137.795,251.265 137.461,249.265 136.5,247.5C 134.369,246.686 132.036,246.186 129.5,246C 128.944,245.617 128.611,245.117 128.5,244.5C 124.02,244.6 122.687,243.1 124.5,240C 121.696,239.54 119.029,240.04 116.5,241.5C 114.88,238.942 113.38,238.942 112,241.5C 110.708,240.209 109.542,240.209 108.5,241.5C 97.5065,240.992 86.5065,240.658 75.5,240.5C 74.5386,242.265 74.2053,244.265 74.5,246.5C 72.8002,246.374 71.3002,245.707 70,244.5C 68.8615,244.989 67.6948,245.322 66.5,245.5C 66.5,243.833 66.5,242.167 66.5,240.5C 62.8333,240.5 59.1667,240.5 55.5,240.5C 58.977,239.677 62.6437,239.177 66.5,239C 67.2524,238.329 67.5858,237.496 67.5,236.5 Z"/></g>
<g><path style="opacity:0.843" fill="#000000" d="M 307.5,238.5 C 312.844,238.334 318.177,238.501 323.5,239C 328.417,243.509 328.751,248.342 324.5,253.5C 320.235,254.439 315.902,254.772 311.5,254.5C 311.5,258.5 311.5,262.5 311.5,266.5C 310.167,266.5 308.833,266.5 307.5,266.5C 307.5,257.167 307.5,247.833 307.5,238.5 Z M 311.5,241.5 C 314.728,241.299 317.895,241.633 321,242.5C 324.381,245.497 324.214,248.33 320.5,251C 317.518,251.498 314.518,251.665 311.5,251.5C 311.5,248.167 311.5,244.833 311.5,241.5 Z"/></g>
<g><path style="opacity:1" fill="#ef2a0b" d="M 20.5,236.5 C 36.1667,236.5 51.8333,236.5 67.5,236.5C 67.5858,237.496 67.2524,238.329 66.5,239C 62.6437,239.177 58.977,239.677 55.5,240.5C 51.1877,245.479 46.521,250.146 41.5,254.5C 36.986,250.735 32.6526,246.735 28.5,242.5C 28.6567,241.127 28.49,239.793 28,238.5C 25.9361,239.591 23.7695,239.758 21.5,239C 20.7476,238.329 20.4142,237.496 20.5,236.5 Z"/></g>
<g><path style="opacity:0.785" fill="#000000" d="M 421.5,239.5 C 422.833,239.5 424.167,239.5 425.5,239.5C 425.5,241.5 425.5,243.5 425.5,245.5C 426.833,245.5 428.167,245.5 429.5,245.5C 429.5,246.833 429.5,248.167 429.5,249.5C 428.167,249.5 426.833,249.5 425.5,249.5C 425.5,254.167 425.5,258.833 425.5,263.5C 426.833,263.5 428.167,263.5 429.5,263.5C 429.5,264.5 429.5,265.5 429.5,266.5C 426.881,266.768 424.381,266.435 422,265.5C 421.501,260.177 421.334,254.844 421.5,249.5C 420.5,249.5 419.5,249.5 418.5,249.5C 418.5,248.167 418.5,246.833 418.5,245.5C 419.5,245.5 420.5,245.5 421.5,245.5C 421.5,243.5 421.5,241.5 421.5,239.5 Z"/></g>
<g><path style="opacity:1" fill="#201b18" d="M 182.5,239.5 C 184.833,239.5 187.167,239.5 189.5,239.5C 189.5,245.167 189.5,250.833 189.5,256.5C 192.442,255.696 195.109,254.362 197.5,252.5C 201.299,251.579 204.632,249.912 207.5,247.5C 208.167,247.5 208.833,247.5 209.5,247.5C 212.187,247.336 214.854,247.503 217.5,248C 212.827,249.67 208.493,251.837 204.5,254.5C 201.903,254.533 200.903,255.533 201.5,257.5C 206.886,260.193 212.22,262.86 217.5,265.5C 215.393,266.468 213.059,266.802 210.5,266.5C 204.981,263.935 199.481,261.268 194,258.5C 189.954,259.578 188.454,262.244 189.5,266.5C 187.167,266.5 184.833,266.5 182.5,266.5C 182.5,262.833 182.5,259.167 182.5,255.5C 182.5,250.167 182.5,244.833 182.5,239.5 Z"/></g>
<g><path style="opacity:1" fill="#1e1917" d="M 55.5,240.5 C 59.1667,240.5 62.8333,240.5 66.5,240.5C 66.5,242.167 66.5,243.833 66.5,245.5C 66.5,249.5 66.5,253.5 66.5,257.5C 66.5,260.5 66.5,263.5 66.5,266.5C 64.1667,266.5 61.8333,266.5 59.5,266.5C 59.8306,259.137 59.4973,251.803 58.5,244.5C 57.8933,244.624 57.56,244.957 57.5,245.5C 53.1667,250.5 48.5,255.167 43.5,259.5C 41.396,259.799 39.396,259.466 37.5,258.5C 32.7852,254.452 28.4519,250.119 24.5,245.5C 24.44,244.957 24.1067,244.624 23.5,244.5C 22.5027,251.803 22.1694,259.137 22.5,266.5C 20.5,266.5 18.5,266.5 16.5,266.5C 16.5,258.167 16.5,249.833 16.5,241.5C 19.8333,241.5 23.1667,241.5 26.5,241.5C 27.1667,241.833 27.8333,242.167 28.5,242.5C 32.6526,246.735 36.986,250.735 41.5,254.5C 46.521,250.146 51.1877,245.479 55.5,240.5 Z"/></g>
<g><path style="opacity:1" fill="#f74319" d="M 196.5,236.5 C 213.167,236.5 229.833,236.5 246.5,236.5C 246.389,237.117 246.056,237.617 245.5,238C 252.485,240.234 259.485,242.067 266.5,243.5C 265.737,244.268 264.737,244.768 263.5,245C 259.514,245.499 255.514,245.666 251.5,245.5C 248.72,245.945 246.053,245.945 243.5,245.5C 242.522,245.977 241.689,246.643 241,247.5C 238.603,245.218 235.769,243.884 232.5,243.5C 232.737,242.209 232.404,241.209 231.5,240.5C 228.833,240.5 226.167,240.5 223.5,240.5C 223.157,242.483 223.824,243.817 225.5,244.5C 225.918,245.222 226.584,245.722 227.5,246C 226.263,246.232 225.263,246.732 224.5,247.5C 223.596,248.209 223.263,249.209 223.5,250.5C 222.141,249.993 221.141,248.993 220.5,247.5C 216.991,246.531 213.324,246.531 209.5,247.5C 208.833,247.5 208.167,247.5 207.5,247.5C 203.021,245.371 198.354,243.538 193.5,242C 192.507,237.722 193.507,237.389 196.5,241C 198.167,241.667 199.833,241.667 201.5,241C 199.292,239.953 197.626,238.453 196.5,236.5 Z"/></g>
<g><path style="opacity:1" fill="#682215" d="M 129.5,240.5 C 129.5,241.5 129.5,242.5 129.5,243.5C 131.833,243.5 134.167,243.5 136.5,243.5C 136.5,242.5 136.5,241.5 136.5,240.5C 137.434,241.568 137.768,242.901 137.5,244.5C 134.5,244.5 131.5,244.5 128.5,244.5C 128.232,242.901 128.566,241.568 129.5,240.5 Z"/></g>
<g><path style="opacity:1" fill="#231816" d="M 129.5,240.5 C 131.833,240.5 134.167,240.5 136.5,240.5C 136.5,241.5 136.5,242.5 136.5,243.5C 134.167,243.5 131.833,243.5 129.5,243.5C 129.5,242.5 129.5,241.5 129.5,240.5 Z"/></g>
<g><path style="opacity:1" fill="#4f2417" d="M 231.5,240.5 C 231.5,241.833 231.5,243.167 231.5,244.5C 229.5,244.5 227.5,244.5 225.5,244.5C 223.824,243.817 223.157,242.483 223.5,240.5C 226.167,240.5 228.833,240.5 231.5,240.5 Z"/></g>
<g><path style="opacity:1" fill="#f95728" d="M 187.5,236.5 C 190.5,236.5 193.5,236.5 196.5,236.5C 197.626,238.453 199.292,239.953 201.5,241C 199.833,241.667 198.167,241.667 196.5,241C 193.507,237.389 192.507,237.722 193.5,242C 198.354,243.538 203.021,245.371 207.5,247.5C 204.632,249.912 201.299,251.579 197.5,252.5C 196.199,251.118 195.366,249.452 195,247.5C 193.667,248.167 192.333,248.833 191,249.5C 190.821,245.975 190.321,242.641 189.5,239.5C 187.167,239.5 184.833,239.5 182.5,239.5C 184.531,239.028 186.198,238.028 187.5,236.5 Z"/></g>
<g><path style="opacity:1" fill="#d95026" d="M 128.5,244.5 C 128.611,245.117 128.944,245.617 129.5,246C 132.036,246.186 134.369,246.686 136.5,247.5C 134.5,247.5 132.5,247.5 130.5,247.5C 129.515,251.634 129.182,255.968 129.5,260.5C 128.549,259.081 128.216,257.415 128.5,255.5C 126.857,255.52 125.524,254.853 124.5,253.5C 123.824,254.602 123.158,255.602 122.5,256.5C 123.382,252.091 122.048,248.591 118.5,246C 114.958,244.725 111.625,243.225 108.5,241.5C 109.542,240.209 110.708,240.209 112,241.5C 113.38,238.942 114.88,238.942 116.5,241.5C 119.029,240.04 121.696,239.54 124.5,240C 122.687,243.1 124.02,244.6 128.5,244.5 Z"/></g>
<g><path style="opacity:0.791" fill="#000000" d="M 331.5,245.5 C 333.451,245.227 334.951,245.893 336,247.5C 337.897,245.984 340.064,245.317 342.5,245.5C 342.5,246.833 342.5,248.167 342.5,249.5C 339.956,249.104 337.789,249.771 336,251.5C 335.501,256.489 335.334,261.489 335.5,266.5C 334.167,266.5 332.833,266.5 331.5,266.5C 331.5,259.5 331.5,252.5 331.5,245.5 Z"/></g>
<g><path style="opacity:0.77" fill="#000000" d="M 349.5,245.5 C 361.177,244.452 365.677,249.785 363,261.5C 359.544,267.206 354.711,268.706 348.5,266C 344.695,261.909 343.528,257.076 345,251.5C 345.804,248.854 347.304,246.854 349.5,245.5 Z M 352.5,248.5 C 357.576,248.608 359.909,251.274 359.5,256.5C 358.311,263.969 354.811,265.303 349,260.5C 347.593,255.556 348.759,251.556 352.5,248.5 Z"/></g>
<g><path style="opacity:0.795" fill="#000000" d="M 370.5,274.5 C 368.5,274.5 366.5,274.5 364.5,274.5C 364.5,273.5 364.5,272.5 364.5,271.5C 365.833,271.5 367.167,271.5 368.5,271.5C 368.5,262.833 368.5,254.167 368.5,245.5C 369.833,245.5 371.167,245.5 372.5,245.5C 372.666,254.173 372.5,262.84 372,271.5C 371.487,272.527 370.987,273.527 370.5,274.5 Z"/></g>
<g><path style="opacity:0.77" fill="#000000" d="M 381.5,245.5 C 391.5,243.508 396.166,247.508 395.5,257.5C 390.456,257.173 385.456,257.506 380.5,258.5C 381.921,263.077 384.921,264.577 389.5,263C 392.829,259.503 394.163,260.003 393.5,264.5C 389,268.302 384.333,268.469 379.5,265C 375.064,257.902 375.73,251.402 381.5,245.5 Z M 384.5,248.5 C 388.693,248.362 391.027,250.362 391.5,254.5C 387.818,254.665 384.152,254.499 380.5,254C 381.036,251.492 382.369,249.659 384.5,248.5 Z"/></g>
<g><path style="opacity:0.756" fill="#000000" d="M 403.5,245.5 C 406.518,245.335 409.518,245.502 412.5,246C 414.5,246.667 415.833,248 416.5,250C 414.212,252.026 412.212,251.692 410.5,249C 403.998,248.692 401.498,251.859 403,258.5C 405.488,264.397 409.155,265.063 414,260.5C 415.946,260.763 416.612,261.763 416,263.5C 412.178,267.721 407.678,268.554 402.5,266C 396.934,258.821 397.268,251.988 403.5,245.5 Z"/></g>
<g><path style="opacity:0.76" fill="#000000" d="M 436.5,245.5 C 439.518,245.335 442.518,245.502 445.5,246C 449.132,247.373 449.299,248.873 446,250.5C 443.775,248.722 441.275,248.222 438.5,249C 437.62,250.356 437.286,251.856 437.5,253.5C 445.739,252.901 449.239,256.568 448,264.5C 442.329,268.859 437.162,268.359 432.5,263C 433.333,262.167 434.167,261.333 435,260.5C 438.353,264.255 441.853,264.422 445.5,261C 441.695,258.716 437.862,256.549 434,254.5C 432.93,250.858 433.764,247.858 436.5,245.5 Z"/></g>
<g><path style="opacity:1" fill="#1f1a18" d="M 75.5,240.5 C 86.5065,240.658 97.5065,240.992 108.5,241.5C 111.625,243.225 114.958,244.725 118.5,246C 122.048,248.591 123.382,252.091 122.5,256.5C 120.473,259.194 118.139,261.527 115.5,263.5C 111.629,264.84 107.629,265.673 103.5,266C 94.1726,266.5 84.8393,266.666 75.5,266.5C 75.5,257.833 75.5,249.167 75.5,240.5 Z"/></g>
<g><path style="opacity:1" fill="#f7622e" d="M 96.5,244.5 C 97.5,244.5 98.5,244.5 99.5,244.5C 101.789,245.058 103.789,246.224 105.5,248C 104.333,248.5 103.5,249.333 103,250.5C 97.7828,248.777 92.6161,248.444 87.5,249.5C 87.44,250.043 87.1067,250.376 86.5,250.5C 85.265,249.66 84.265,248.66 83.5,247.5C 83.5,246.5 83.5,245.5 83.5,244.5C 87.8333,244.5 92.1667,244.5 96.5,244.5 Z"/></g>
<g><path style="opacity:1" fill="#f46126" d="M 231.5,240.5 C 232.404,241.209 232.737,242.209 232.5,243.5C 235.769,243.884 238.603,245.218 241,247.5C 241.689,246.643 242.522,245.977 243.5,245.5C 246.053,245.945 248.72,245.945 251.5,245.5C 251.5,245.833 251.5,246.167 251.5,246.5C 248.432,247.022 245.432,247.855 242.5,249C 240.63,251.04 238.63,252.873 236.5,254.5C 236.762,253.022 236.429,251.689 235.5,250.5C 234.264,251.246 232.93,251.579 231.5,251.5C 231.768,249.901 231.434,248.568 230.5,247.5C 228.5,247.5 226.5,247.5 224.5,247.5C 225.263,246.732 226.263,246.232 227.5,246C 226.584,245.722 225.918,245.222 225.5,244.5C 227.5,244.5 229.5,244.5 231.5,244.5C 231.5,243.167 231.5,241.833 231.5,240.5 Z"/></g>
<g><path style="opacity:1" fill="#ed3113" d="M 20.5,236.5 C 20.4142,237.496 20.7476,238.329 21.5,239C 23.7695,239.758 25.9361,239.591 28,238.5C 28.49,239.793 28.6567,241.127 28.5,242.5C 27.8333,242.167 27.1667,241.833 26.5,241.5C 23.0381,240.518 19.3714,240.185 15.5,240.5C 15.5,248.5 15.5,256.5 15.5,264.5C 12.9857,264.754 10.6524,265.587 8.5,267C 9.33663,268.011 9.66997,269.178 9.5,270.5C 7.5,270.5 5.5,270.5 3.5,270.5C 3.5,261.167 3.5,251.833 3.5,242.5C 4.46138,240.735 4.79472,238.735 4.5,236.5C 9.83333,236.5 15.1667,236.5 20.5,236.5 Z"/></g>
<g><path style="opacity:1" fill="#181717" d="M 130.5,247.5 C 132.5,247.5 134.5,247.5 136.5,247.5C 136.5,252.167 136.5,256.833 136.5,261.5C 136.5,263.167 136.5,264.833 136.5,266.5C 134.5,266.5 132.5,266.5 130.5,266.5C 130.5,260.167 130.5,253.833 130.5,247.5 Z"/></g>
<g><path style="opacity:1" fill="#191817" d="M 224.5,247.5 C 226.5,247.5 228.5,247.5 230.5,247.5C 230.5,253.833 230.5,260.167 230.5,266.5C 228.5,266.5 226.5,266.5 224.5,266.5C 224.5,260.167 224.5,253.833 224.5,247.5 Z"/></g>
<g><path style="opacity:1" fill="#ef6e35" d="M 99.5,244.5 C 105.854,244.442 111.021,246.775 115,251.5C 115.765,253.066 115.598,254.399 114.5,255.5C 114.53,254.503 114.03,253.836 113,253.5C 110.804,254.09 108.638,254.757 106.5,255.5C 105.646,254.478 104.646,253.645 103.5,253C 97.9543,252.658 92.621,251.491 87.5,249.5C 92.6161,248.444 97.7828,248.777 103,250.5C 103.5,249.333 104.333,248.5 105.5,248C 103.789,246.224 101.789,245.058 99.5,244.5 Z"/></g>
<g><path style="opacity:1" fill="#251d19" d="M 177.5,248.5 C 177.5,249.5 177.5,250.5 177.5,251.5C 170.92,249.887 164.253,249.387 157.5,250C 152.138,251.452 150.138,254.619 151.5,259.5C 152.392,262.292 154.392,263.625 157.5,263.5C 159.304,264.162 161.304,264.495 163.5,264.5C 168.208,264.04 172.874,263.373 177.5,262.5C 177.5,263.833 177.5,265.167 177.5,266.5C 170.847,267.054 164.18,267.388 157.5,267.5C 153.828,266.759 150.161,265.593 146.5,264C 143.971,261.358 142.971,258.192 143.5,254.5C 143.833,253.833 144.167,253.167 144.5,252.5C 146.138,251.343 147.804,250.176 149.5,249C 158.787,245.837 168.12,245.67 177.5,248.5 Z"/></g>
<g><path style="opacity:1" fill="#e96e36" d="M 189.5,239.5 C 190.321,242.641 190.821,245.975 191,249.5C 192.333,248.833 193.667,248.167 195,247.5C 195.366,249.452 196.199,251.118 197.5,252.5C 195.109,254.362 192.442,255.696 189.5,256.5C 189.5,250.833 189.5,245.167 189.5,239.5 Z"/></g>
<g><path style="opacity:1" fill="#f48f48" d="M 75.5,240.5 C 75.5,249.167 75.5,257.833 75.5,266.5C 74.596,265.791 74.2627,264.791 74.5,263.5C 71.001,263.741 70.6677,262.908 73.5,261C 73.1667,260.833 72.8333,260.667 72.5,260.5C 70.9017,261.485 69.235,261.651 67.5,261C 70.1591,259.134 69.8258,257.967 66.5,257.5C 66.5,253.5 66.5,249.5 66.5,245.5C 67.6948,245.322 68.8615,244.989 70,244.5C 71.3002,245.707 72.8002,246.374 74.5,246.5C 74.2053,244.265 74.5386,242.265 75.5,240.5 Z"/></g>
<g><path style="opacity:1" fill="#583723" d="M 130.5,247.5 C 130.5,253.833 130.5,260.167 130.5,266.5C 132.5,266.5 134.5,266.5 136.5,266.5C 134.393,267.468 132.059,267.802 129.5,267.5C 129.5,265.167 129.5,262.833 129.5,260.5C 129.182,255.968 129.515,251.634 130.5,247.5 Z"/></g>
<g><path style="opacity:1" fill="#dc6633" d="M 182.5,239.5 C 182.5,244.833 182.5,250.167 182.5,255.5C 182.167,255.5 181.833,255.5 181.5,255.5C 179.334,255.421 177.334,254.754 175.5,253.5C 174.558,253.608 173.725,253.941 173,254.5C 172.311,253.643 171.478,252.977 170.5,252.5C 167.014,253.795 163.514,253.795 160,252.5C 156.957,254.722 154.124,257.055 151.5,259.5C 150.138,254.619 152.138,251.452 157.5,250C 164.253,249.387 170.92,249.887 177.5,251.5C 177.5,250.5 177.5,249.5 177.5,248.5C 178.404,249.209 178.737,250.209 178.5,251.5C 179.5,251.5 180.5,251.5 181.5,251.5C 181.183,247.298 181.517,243.298 182.5,239.5 Z"/></g>
<g><path style="opacity:1" fill="#2a1e19" d="M 251.5,246.5 C 259.851,245.502 267.518,247.168 274.5,251.5C 275.341,253.379 275.675,255.379 275.5,257.5C 267.5,257.5 259.5,257.5 251.5,257.5C 249.167,257.5 246.833,257.5 244.5,257.5C 245.015,261.453 247.348,263.619 251.5,264C 256.684,264.816 261.684,264.65 266.5,263.5C 269.127,262.908 271.794,262.575 274.5,262.5C 274.5,263.833 274.5,265.167 274.5,266.5C 271.615,266.194 268.948,266.527 266.5,267.5C 257.628,267.999 248.962,266.999 240.5,264.5C 237.519,261.865 236.186,258.532 236.5,254.5C 238.63,252.873 240.63,251.04 242.5,249C 245.432,247.855 248.432,247.022 251.5,246.5 Z"/></g>
<g><path style="opacity:1" fill="#f0642c" d="M 251.5,249.5 C 255.182,249.335 258.848,249.501 262.5,250C 264.861,250.197 266.528,251.364 267.5,253.5C 259.855,254.665 252.188,254.831 244.5,254C 246.324,251.495 248.657,249.995 251.5,249.5 Z"/></g>
<g><path style="opacity:1" fill="#d93310" d="M 294.5,252.5 C 294.5,255.167 294.5,257.833 294.5,260.5C 290.184,260.841 285.851,261.007 281.5,261C 278.928,259.027 277.261,256.361 276.5,253C 276.164,251.97 275.497,251.47 274.5,251.5C 267.518,247.168 259.851,245.502 251.5,246.5C 251.5,246.167 251.5,245.833 251.5,245.5C 255.514,245.666 259.514,245.499 263.5,245C 264.737,244.768 265.737,244.268 266.5,243.5C 266.435,243.062 266.601,242.728 267,242.5C 268.833,244.333 270.667,246.167 272.5,248C 273.899,248.595 275.232,248.428 276.5,247.5C 277.862,249.012 278.196,250.512 277.5,252C 281.884,252.027 285.884,253.193 289.5,255.5C 291.36,254.74 293.027,253.74 294.5,252.5 Z"/></g>
<g><path style="opacity:1" fill="#f98f47" d="M 83.5,247.5 C 84.265,248.66 85.265,249.66 86.5,250.5C 87.1067,250.376 87.44,250.043 87.5,249.5C 92.621,251.491 97.9543,252.658 103.5,253C 104.646,253.645 105.646,254.478 106.5,255.5C 108.638,254.757 110.804,254.09 113,253.5C 114.03,253.836 114.53,254.503 114.5,255.5C 114.672,256.492 114.338,257.158 113.5,257.5C 113.44,256.957 113.107,256.624 112.5,256.5C 111.148,257.896 109.481,258.563 107.5,258.5C 101.017,256.556 94.3507,255.389 87.5,255C 86.3181,253.232 84.9848,253.065 83.5,254.5C 83.5,252.167 83.5,249.833 83.5,247.5 Z"/></g>
<g><path style="opacity:1" fill="#f87838" d="M 209.5,247.5 C 213.324,246.531 216.991,246.531 220.5,247.5C 221.141,248.993 222.141,249.993 223.5,250.5C 222.455,257.522 218.455,260.355 211.5,259C 209.474,257.705 208.474,256.205 208.5,254.5C 207.833,255.5 207.167,256.5 206.5,257.5C 205.824,256.398 205.158,255.398 204.5,254.5C 208.493,251.837 212.827,249.67 217.5,248C 214.854,247.503 212.187,247.336 209.5,247.5 Z"/></g>
<g><path style="opacity:1" fill="#962e18" d="M 26.5,241.5 C 23.1667,241.5 19.8333,241.5 16.5,241.5C 16.5,249.833 16.5,258.167 16.5,266.5C 15.6618,266.158 15.3284,265.492 15.5,264.5C 15.5,256.5 15.5,248.5 15.5,240.5C 19.3714,240.185 23.0381,240.518 26.5,241.5 Z"/></g>
<g><path style="opacity:1" fill="#945b32" d="M 96.5,244.5 C 92.1667,244.5 87.8333,244.5 83.5,244.5C 83.5,245.5 83.5,246.5 83.5,247.5C 83.5,249.833 83.5,252.167 83.5,254.5C 83.5,257.5 83.5,260.5 83.5,263.5C 88.1667,263.5 92.8333,263.5 97.5,263.5C 92.6946,264.487 87.6946,264.821 82.5,264.5C 82.5,257.5 82.5,250.5 82.5,243.5C 87.3633,243.181 92.03,243.514 96.5,244.5 Z"/></g>
<g><path style="opacity:1" fill="#f68643" d="M 181.5,255.5 C 178.361,257.572 175.028,259.405 171.5,261C 168.641,261.553 165.808,261.386 163,260.5C 160.785,260.9 158.952,261.9 157.5,263.5C 154.392,263.625 152.392,262.292 151.5,259.5C 154.124,257.055 156.957,254.722 160,252.5C 163.514,253.795 167.014,253.795 170.5,252.5C 171.478,252.977 172.311,253.643 173,254.5C 173.725,253.941 174.558,253.608 175.5,253.5C 177.334,254.754 179.334,255.421 181.5,255.5 Z"/></g>
<g><path style="opacity:1" fill="#e86c35" d="M 136.5,247.5 C 137.461,249.265 137.795,251.265 137.5,253.5C 139.861,253.326 142.194,252.993 144.5,252.5C 144.167,253.167 143.833,253.833 143.5,254.5C 142.388,256.599 141.721,258.933 141.5,261.5C 139.833,261.5 138.167,261.5 136.5,261.5C 136.5,256.833 136.5,252.167 136.5,247.5 Z"/></g>
<g><path style="opacity:1" fill="#ed602b" d="M 24.5,245.5 C 28.4519,250.119 32.7852,254.452 37.5,258.5C 39.396,259.466 41.396,259.799 43.5,259.5C 39.5042,260.07 35.5042,261.07 31.5,262.5C 30.914,262.291 30.414,261.957 30,261.5C 26.9882,264.355 26.1548,267.689 27.5,271.5C 19.7572,270.87 12.4238,271.537 5.5,273.5C 3.95186,273.179 3.28519,272.179 3.5,270.5C 5.5,270.5 7.5,270.5 9.5,270.5C 9.66997,269.178 9.33663,268.011 8.5,267C 10.6524,265.587 12.9857,264.754 15.5,264.5C 15.3284,265.492 15.6618,266.158 16.5,266.5C 18.6074,267.468 20.9407,267.802 23.5,267.5C 23.175,259.981 23.5084,252.648 24.5,245.5 Z"/></g>
<g><path style="opacity:1" fill="#f9b15b" d="M 113.5,257.5 C 112.71,258.794 111.71,259.961 110.5,261C 106.272,262.412 101.939,263.246 97.5,263.5C 92.8333,263.5 88.1667,263.5 83.5,263.5C 83.5,260.5 83.5,257.5 83.5,254.5C 84.9848,253.065 86.3181,253.232 87.5,255C 94.3507,255.389 101.017,256.556 107.5,258.5C 109.481,258.563 111.148,257.896 112.5,256.5C 113.107,256.624 113.44,256.957 113.5,257.5 Z"/></g>
<g><path style="opacity:1" fill="#f26d32" d="M 251.5,257.5 C 259.5,257.5 267.5,257.5 275.5,257.5C 276.497,257.47 277.164,257.97 277.5,259C 277.767,262.032 278.767,264.699 280.5,267C 278.893,268.049 278.227,269.549 278.5,271.5C 275.167,271.5 271.833,271.5 268.5,271.5C 268.611,270.883 268.944,270.383 269.5,270C 268.058,269.623 267.058,268.79 266.5,267.5C 268.948,266.527 271.615,266.194 274.5,266.5C 274.5,265.167 274.5,263.833 274.5,262.5C 271.794,262.575 269.127,262.908 266.5,263.5C 264.473,263.662 262.473,263.495 260.5,263C 260.833,262.667 261.167,262.333 261.5,262C 259.563,259.565 257.73,259.398 256,261.5C 254.644,260.62 253.144,260.286 251.5,260.5C 251.5,259.5 251.5,258.5 251.5,257.5 Z"/></g>
<g><path style="opacity:1" fill="#ec9047" d="M 224.5,247.5 C 224.5,253.833 224.5,260.167 224.5,266.5C 222.883,267.038 221.216,267.371 219.5,267.5C 219.5,266.167 218.833,265.5 217.5,265.5C 212.22,262.86 206.886,260.193 201.5,257.5C 200.903,255.533 201.903,254.533 204.5,254.5C 205.158,255.398 205.824,256.398 206.5,257.5C 207.167,256.5 207.833,255.5 208.5,254.5C 208.474,256.205 209.474,257.705 211.5,259C 218.455,260.355 222.455,257.522 223.5,250.5C 223.263,249.209 223.596,248.209 224.5,247.5 Z"/></g>
<g><path style="opacity:1" fill="#ee823f" d="M 251.5,257.5 C 251.5,258.5 251.5,259.5 251.5,260.5C 253.144,260.286 254.644,260.62 256,261.5C 257.73,259.398 259.563,259.565 261.5,262C 261.167,262.333 260.833,262.667 260.5,263C 262.473,263.495 264.473,263.662 266.5,263.5C 261.684,264.65 256.684,264.816 251.5,264C 247.348,263.619 245.015,261.453 244.5,257.5C 246.833,257.5 249.167,257.5 251.5,257.5 Z"/></g>
<g><path style="opacity:1" fill="#624227" d="M 57.5,245.5 C 57.56,244.957 57.8933,244.624 58.5,244.5C 59.4973,251.803 59.8306,259.137 59.5,266.5C 61.8333,266.5 64.1667,266.5 66.5,266.5C 64.0521,267.473 61.3854,267.806 58.5,267.5C 58.5,263.5 58.5,259.5 58.5,255.5C 58.8128,251.958 58.4794,248.625 57.5,245.5 Z"/></g>
<g><path style="opacity:1" fill="#75542c" d="M 230.5,247.5 C 231.434,248.568 231.768,249.901 231.5,251.5C 231.5,253.167 231.5,254.833 231.5,256.5C 231.5,259.833 231.5,263.167 231.5,266.5C 229.167,267.833 226.833,267.833 224.5,266.5C 226.5,266.5 228.5,266.5 230.5,266.5C 230.5,260.167 230.5,253.833 230.5,247.5 Z"/></g>
<g><path style="opacity:1" fill="#f8903d" d="M 236.5,254.5 C 236.186,258.532 237.519,261.865 240.5,264.5C 239.262,265.412 237.928,265.579 236.5,265C 235.726,262.595 235.226,260.095 235,257.5C 233.989,256.663 232.822,256.33 231.5,256.5C 231.5,254.833 231.5,253.167 231.5,251.5C 232.93,251.579 234.264,251.246 235.5,250.5C 236.429,251.689 236.762,253.022 236.5,254.5 Z"/></g>
<g><path style="opacity:1" fill="#e04b1f" d="M 274.5,251.5 C 275.497,251.47 276.164,251.97 276.5,253C 277.261,256.361 278.928,259.027 281.5,261C 285.851,261.007 290.184,260.841 294.5,260.5C 294.5,264.167 294.5,267.833 294.5,271.5C 289.167,271.5 283.833,271.5 278.5,271.5C 278.227,269.549 278.893,268.049 280.5,267C 278.767,264.699 277.767,262.032 277.5,259C 277.164,257.97 276.497,257.47 275.5,257.5C 275.675,255.379 275.341,253.379 274.5,251.5 Z"/></g>
<g><path style="opacity:1" fill="#fc9f45" d="M 57.5,256.5 C 57.6641,259.187 57.4974,261.854 57,264.5C 56.6667,264.167 56.3333,263.833 56,263.5C 55.4427,265.615 54.6094,267.615 53.5,269.5C 49.8927,270.489 46.226,270.823 42.5,270.5C 43.1667,268.167 43.8333,265.833 44.5,263.5C 48.9498,261.441 53.2832,259.108 57.5,256.5 Z"/></g>
<g><path style="opacity:1" fill="#6e311d" d="M 24.5,245.5 C 23.5084,252.648 23.175,259.981 23.5,267.5C 20.9407,267.802 18.6074,267.468 16.5,266.5C 18.5,266.5 20.5,266.5 22.5,266.5C 22.1694,259.137 22.5027,251.803 23.5,244.5C 24.1067,244.624 24.44,244.957 24.5,245.5 Z"/></g>
<g><path style="opacity:1" fill="#f67b32" d="M 57.5,245.5 C 58.4794,248.625 58.8128,251.958 58.5,255.5C 57.8333,255.5 57.5,255.833 57.5,256.5C 53.2832,259.108 48.9498,261.441 44.5,263.5C 43.8333,265.833 43.1667,268.167 42.5,270.5C 41.209,270.263 40.209,270.596 39.5,271.5C 35.5,271.5 31.5,271.5 27.5,271.5C 26.1548,267.689 26.9882,264.355 30,261.5C 30.414,261.957 30.914,262.291 31.5,262.5C 35.5042,261.07 39.5042,260.07 43.5,259.5C 48.5,255.167 53.1667,250.5 57.5,245.5 Z"/></g>
<g><path style="opacity:1" fill="#f9ab55" d="M 58.5,255.5 C 58.5,259.5 58.5,263.5 58.5,267.5C 61.3854,267.806 64.0521,267.473 66.5,266.5C 66.5,263.5 66.5,260.5 66.5,257.5C 69.8258,257.967 70.1591,259.134 67.5,261C 69.235,261.651 70.9017,261.485 72.5,260.5C 72.8333,260.667 73.1667,260.833 73.5,261C 70.6677,262.908 71.001,263.741 74.5,263.5C 74.2627,264.791 74.596,265.791 75.5,266.5C 77.6074,267.468 79.9407,267.802 82.5,267.5C 82.5,268.5 82.5,269.5 82.5,270.5C 73.9832,270.174 65.6499,270.507 57.5,271.5C 51.5,271.5 45.5,271.5 39.5,271.5C 40.209,270.596 41.209,270.263 42.5,270.5C 46.226,270.823 49.8927,270.489 53.5,269.5C 54.6094,267.615 55.4427,265.615 56,263.5C 56.3333,263.833 56.6667,264.167 57,264.5C 57.4974,261.854 57.6641,259.187 57.5,256.5C 57.5,255.833 57.8333,255.5 58.5,255.5 Z"/></g>
<g><path style="opacity:1" fill="#f59c50" d="M 129.5,260.5 C 129.5,262.833 129.5,265.167 129.5,267.5C 132.059,267.802 134.393,267.468 136.5,266.5C 136.5,264.833 136.5,263.167 136.5,261.5C 138.167,261.5 139.833,261.5 141.5,261.5C 141.721,258.933 142.388,256.599 143.5,254.5C 142.971,258.192 143.971,261.358 146.5,264C 150.161,265.593 153.828,266.759 157.5,267.5C 154.59,268.425 151.924,269.759 149.5,271.5C 142.833,271.5 136.167,271.5 129.5,271.5C 129.144,270.13 128.31,269.13 127,268.5C 123.819,269.79 120.652,269.79 117.5,268.5C 118.011,266.581 117.344,264.915 115.5,263.5C 118.139,261.527 120.473,259.194 122.5,256.5C 123.158,255.602 123.824,254.602 124.5,253.5C 125.524,254.853 126.857,255.52 128.5,255.5C 128.216,257.415 128.549,259.081 129.5,260.5 Z"/></g>
<g><path style="opacity:1" fill="#f0ae5a" d="M 181.5,255.5 C 181.833,255.5 182.167,255.5 182.5,255.5C 182.5,259.167 182.5,262.833 182.5,266.5C 184.833,266.5 187.167,266.5 189.5,266.5C 188.454,262.244 189.954,259.578 194,258.5C 199.481,261.268 204.981,263.935 210.5,266.5C 213.287,267.477 216.287,267.81 219.5,267.5C 219.217,268.289 218.717,268.956 218,269.5C 216.817,268.269 215.651,268.269 214.5,269.5C 221.134,270.497 227.8,270.83 234.5,270.5C 240.69,270.177 246.69,270.51 252.5,271.5C 218.167,271.5 183.833,271.5 149.5,271.5C 151.924,269.759 154.59,268.425 157.5,267.5C 164.18,267.388 170.847,267.054 177.5,266.5C 177.5,265.167 177.5,263.833 177.5,262.5C 172.874,263.373 168.208,264.04 163.5,264.5C 161.304,264.495 159.304,264.162 157.5,263.5C 158.952,261.9 160.785,260.9 163,260.5C 165.808,261.386 168.641,261.553 171.5,261C 175.028,259.405 178.361,257.572 181.5,255.5 Z"/></g>
<g><path style="opacity:1" fill="#946134" d="M 217.5,265.5 C 218.833,265.5 219.5,266.167 219.5,267.5C 216.287,267.81 213.287,267.477 210.5,266.5C 213.059,266.802 215.393,266.468 217.5,265.5 Z"/></g>
<g><path style="opacity:1" fill="#fbca62" d="M 224.5,266.5 C 226.833,267.833 229.167,267.833 231.5,266.5C 232.5,266.5 233.5,266.5 234.5,266.5C 234.5,267.833 234.5,269.167 234.5,270.5C 227.8,270.83 221.134,270.497 214.5,269.5C 215.651,268.269 216.817,268.269 218,269.5C 218.717,268.956 219.217,268.289 219.5,267.5C 221.216,267.371 222.883,267.038 224.5,266.5 Z"/></g>
<g><path style="opacity:1" fill="#f7ae53" d="M 231.5,256.5 C 232.822,256.33 233.989,256.663 235,257.5C 235.226,260.095 235.726,262.595 236.5,265C 237.928,265.579 239.262,265.412 240.5,264.5C 248.962,266.999 257.628,267.999 266.5,267.5C 267.058,268.79 268.058,269.623 269.5,270C 268.944,270.383 268.611,270.883 268.5,271.5C 263.167,271.5 257.833,271.5 252.5,271.5C 246.69,270.51 240.69,270.177 234.5,270.5C 234.5,269.167 234.5,267.833 234.5,266.5C 233.5,266.5 232.5,266.5 231.5,266.5C 231.5,263.167 231.5,259.833 231.5,256.5 Z"/></g>
<g><path style="opacity:1" fill="#eab15c" d="M 115.5,263.5 C 117.344,264.915 118.011,266.581 117.5,268.5C 120.652,269.79 123.819,269.79 127,268.5C 128.31,269.13 129.144,270.13 129.5,271.5C 105.5,271.5 81.5,271.5 57.5,271.5C 65.6499,270.507 73.9832,270.174 82.5,270.5C 82.5,269.5 82.5,268.5 82.5,267.5C 79.9407,267.802 77.6074,267.468 75.5,266.5C 84.8393,266.666 94.1726,266.5 103.5,266C 107.629,265.673 111.629,264.84 115.5,263.5 Z"/></g>
</svg>
