<?xml version="1.0" encoding="UTF-8"?>
<!DOCTYPE svg PUBLIC "-//W3C//DTD SVG 1.1//EN" "http://www.w3.org/Graphics/SVG/1.1/DTD/svg11.dtd">
<svg xmlns="http://www.w3.org/2000/svg" version="1.1" width="512px" height="512px" style="shape-rendering:geometricPrecision; text-rendering:geometricPrecision; image-rendering:optimizeQuality; fill-rule:evenodd; clip-rule:evenodd" xmlns:xlink="http://www.w3.org/1999/xlink">
<g><path style="opacity:0.961" fill="#000000" d="M 258.5,-0.5 C 265.5,-0.5 272.5,-0.5 279.5,-0.5C 298.37,4.52673 311.537,16.1934 319,34.5C 320.642,45.2431 322.642,55.9098 325,66.5C 330.622,78.0636 339.789,84.8969 352.5,87C 363.161,87.4998 373.828,87.6665 384.5,87.5C 399.995,88.3314 415.661,88.8314 431.5,89C 436.453,91.6396 437.62,95.4729 435,100.5C 433.681,102.487 431.848,103.654 429.5,104C 414.328,104.169 399.328,104.669 384.5,105.5C 371.798,105.792 359.131,105.292 346.5,104C 324.223,98.0565 310.39,83.8899 305,61.5C 306.005,47.1697 301.505,35.003 291.5,25C 272.466,12.2057 255.299,14.3724 240,31.5C 236.91,35.682 234.91,40.3487 234,45.5C 233.5,53.4931 233.334,61.4931 233.5,69.5C 243.172,69.3335 252.839,69.5002 262.5,70C 269.815,71.3162 274.648,75.4829 277,82.5C 277.5,92.4944 277.666,102.494 277.5,112.5C 338.292,130.122 382.458,167.455 410,224.5C 438.12,292.967 432.787,358.633 394,421.5C 357.277,473.118 307.444,503.118 244.5,511.5C 231.167,511.5 217.833,511.5 204.5,511.5C 126.204,500.442 70.3706,459.109 37,387.5C 10.4641,318.467 17.4641,253.134 58,191.5C 86.4065,151.706 124.24,125.373 171.5,112.5C 171.334,102.828 171.5,93.1609 172,83.5C 173.947,75.8858 178.78,71.3858 186.5,70C 196.161,69.5002 205.828,69.3335 215.5,69.5C 212.292,47.7984 217.959,28.965 232.5,13C 240.264,6.61894 248.931,2.11894 258.5,-0.5 Z"/></g>
<g><path style="opacity:0.956" fill="#040301" d="M 436.5,52.5 C 437.257,57.8081 436.257,62.6414 433.5,67C 426.73,70.2961 422.23,68.4627 420,61.5C 419.502,58.5184 419.335,55.5184 419.5,52.5C 419.334,48.1539 419.501,43.8206 420,39.5C 423.366,34.391 427.866,33.2243 433.5,36C 434.701,36.9025 435.535,38.0692 436,39.5C 436.499,43.8206 436.666,48.1539 436.5,52.5 Z"/></g>
<g><path style="opacity:0.947" fill="#030301" d="M 403.5,58.5 C 405.759,61.9378 408.259,65.2711 411,68.5C 411.346,76.4849 407.513,79.9849 399.5,79C 396.899,75.8883 393.899,73.3883 390.5,71.5C 388.205,68.7029 385.705,66.0362 383,63.5C 380.491,56.1858 382.991,51.5192 390.5,49.5C 395.657,51.3257 399.99,54.3257 403.5,58.5 Z"/></g>
<g><path style="opacity:0.948" fill="#030301" d="M 465.5,71.5 C 462.437,73.0512 459.771,75.2179 457.5,78C 450.202,80.8957 445.868,78.3957 444.5,70.5C 446.791,66.2167 449.457,62.2167 452.5,58.5C 456.01,54.3257 460.343,51.3257 465.5,49.5C 473.009,51.5192 475.509,56.1858 473,63.5C 470.295,66.0362 467.795,68.7029 465.5,71.5 Z"/></g>
<g><path style="opacity:0.975" fill="#f9ea7f" d="M 419.5,52.5 C 419.335,55.5184 419.502,58.5184 420,61.5C 422.23,68.4627 426.73,70.2961 433.5,67C 436.257,62.6414 437.257,57.8081 436.5,52.5C 442.214,53.5154 447.547,55.5154 452.5,58.5C 449.457,62.2167 446.791,66.2167 444.5,70.5C 445.868,78.3957 450.202,80.8957 457.5,78C 459.771,75.2179 462.437,73.0512 465.5,71.5C 468.485,76.4526 470.485,81.7859 471.5,87.5C 467.688,88.3238 463.688,88.8238 459.5,89C 454.554,93.3003 454.221,97.967 458.5,103C 462.906,104.041 467.239,104.874 471.5,105.5C 470.476,111.243 468.476,116.576 465.5,121.5C 462.665,118.835 459.665,116.335 456.5,114C 448.931,112.174 445.098,115.008 445,122.5C 447.326,126.319 449.826,129.985 452.5,133.5C 447.689,136.903 442.356,139.236 436.5,140.5C 437.655,134.029 435.989,128.529 431.5,124C 427.102,122.622 423.602,123.788 421,127.5C 419.71,131.73 419.21,136.064 419.5,140.5C 413.644,139.236 408.311,136.903 403.5,133.5C 405.051,130.437 407.218,127.771 410,125.5C 412.29,116.211 408.79,112.378 399.5,114C 396.335,116.335 393.335,118.835 390.5,121.5C 387.524,116.576 385.524,111.243 384.5,105.5C 399.328,104.669 414.328,104.169 429.5,104C 431.848,103.654 433.681,102.487 435,100.5C 437.62,95.4729 436.453,91.6396 431.5,89C 415.661,88.8314 399.995,88.3314 384.5,87.5C 385.515,81.7859 387.515,76.4526 390.5,71.5C 393.899,73.3883 396.899,75.8883 399.5,79C 407.513,79.9849 411.346,76.4849 411,68.5C 408.259,65.2711 405.759,61.9378 403.5,58.5C 408.453,55.5154 413.786,53.5154 419.5,52.5 Z"/></g>
<g><path style="opacity:1" fill="#444452" d="M 188.5,86.5 C 212.5,86.5 236.5,86.5 260.5,86.5C 260.5,93.8333 260.5,101.167 260.5,108.5C 248.525,107.28 236.525,106.28 224.5,105.5C 212.452,106.059 200.452,107.059 188.5,108.5C 188.5,101.167 188.5,93.8333 188.5,86.5 Z"/></g>
<g><path style="opacity:0.943" fill="#010100" d="M 471.5,87.5 C 475.846,87.3343 480.179,87.501 484.5,88C 489.155,90.8966 490.655,95.0633 489,100.5C 487.833,101.667 486.667,102.833 485.5,104C 480.915,105.225 476.248,105.725 471.5,105.5C 467.239,104.874 462.906,104.041 458.5,103C 454.221,97.967 454.554,93.3003 459.5,89C 463.688,88.8238 467.688,88.3238 471.5,87.5 Z"/></g>
<g><path style="opacity:0.95" fill="#010100" d="M 403.5,133.5 C 400.333,136.498 397,139.331 393.5,142C 382.705,142.201 379.538,137.368 384,127.5C 386.037,125.294 388.203,123.294 390.5,121.5C 393.335,118.835 396.335,116.335 399.5,114C 408.79,112.378 412.29,116.211 410,125.5C 407.218,127.771 405.051,130.437 403.5,133.5 Z"/></g>
<g><path style="opacity:0.95" fill="#030201" d="M 465.5,121.5 C 472.445,125.376 474.945,131.043 473,138.5C 470.293,142.035 466.793,143.202 462.5,142C 459,139.331 455.667,136.498 452.5,133.5C 449.826,129.985 447.326,126.319 445,122.5C 445.098,115.008 448.931,112.174 456.5,114C 459.665,116.335 462.665,118.835 465.5,121.5 Z"/></g>
<g><path style="opacity:1" fill="#5a5c6d" d="M 373.5,419.5 C 291.592,452.85 217.925,440.017 152.5,381C 101.409,325.926 84.9092,261.759 103,188.5C 106.412,178.76 109.912,169.093 113.5,159.5C 158.103,126.771 207.77,115.604 262.5,126C 324.818,140.893 369.318,177.393 396,235.5C 418.295,292.391 414.961,347.724 386,401.5C 382.55,408.09 378.384,414.09 373.5,419.5 Z"/></g>
<g><path style="opacity:0.964" fill="#040402" d="M 436.5,140.5 C 436.666,144.846 436.499,149.179 436,153.5C 430.667,160.167 425.333,160.167 420,153.5C 419.501,149.179 419.334,144.846 419.5,140.5C 419.21,136.064 419.71,131.73 421,127.5C 423.602,123.788 427.102,122.622 431.5,124C 435.989,128.529 437.655,134.029 436.5,140.5 Z"/></g>
<g><path style="opacity:1" fill="#020202" d="M 283.5,153.5 C 292.804,155.481 301.471,159.147 309.5,164.5C 313.697,169.689 313.03,174.189 307.5,178C 305.167,178.667 302.833,178.667 300.5,178C 292.76,174.717 285.593,170.55 279,165.5C 277.474,160.239 278.974,156.239 283.5,153.5 Z"/></g>
<g><path style="opacity:1" fill="#454554" d="M 113.5,159.5 C 109.912,169.093 106.412,178.76 103,188.5C 84.9092,261.759 101.409,325.926 152.5,381C 217.925,440.017 291.592,452.85 373.5,419.5C 340.233,463.481 295.9,488.315 240.5,494C 170.203,497.595 114.036,471.428 72,415.5C 35.1619,358.794 28.8286,298.794 53,235.5C 66.3683,204.645 86.5349,179.312 113.5,159.5 Z"/></g>
<g><path style="opacity:1" fill="#020202" d="M 327.5,181.5 C 330.32,181.248 332.986,181.748 335.5,183C 360.316,204.963 376.982,231.963 385.5,264C 385.403,269.263 382.737,272.096 377.5,272.5C 374.889,272.444 372.722,271.444 371,269.5C 362.074,239.637 346.074,214.304 323,193.5C 322.333,191.167 322.333,188.833 323,186.5C 324.366,184.638 325.866,182.972 327.5,181.5 Z"/></g>
<g><path style="opacity:1" fill="#010101" d="M 95.5,397.5 C 98.7935,397.259 101.794,398.092 104.5,400C 127.416,429.306 157.083,448.306 193.5,457C 199.781,464.62 198.115,469.787 188.5,472.5C 149.304,463.159 117.138,442.826 92,411.5C 89.2672,405.722 90.4339,401.056 95.5,397.5 Z"/></g>
</svg>
