<?xml version="1.0" encoding="UTF-8"?>
<!DOCTYPE svg PUBLIC "-//W3C//DTD SVG 1.1//EN" "http://www.w3.org/Graphics/SVG/1.1/DTD/svg11.dtd">
<svg xmlns="http://www.w3.org/2000/svg" version="1.1" width="700px" height="300px" style="shape-rendering:geometricPrecision; text-rendering:geometricPrecision; image-rendering:optimizeQuality; fill-rule:evenodd; clip-rule:evenodd" xmlns:xlink="http://www.w3.org/1999/xlink">
<g><path style="opacity:0.996" fill="#1c1c1c" d="M 388.5,19.5 C 388.025,22.0821 388.692,24.0821 390.5,25.5C 393.25,28.0551 396.25,30.3884 399.5,32.5C 401.953,29.7587 404.286,26.9254 406.5,24C 407.833,23.3333 409.167,23.3333 410.5,24C 414.375,28.0386 418.708,31.5386 423.5,34.5C 425.978,36.1707 427.478,38.504 428,41.5C 432.188,39.3718 435.855,40.3718 439,44.5C 439.315,45.9078 438.982,47.2411 438,48.5C 434.193,53.9411 430.027,59.1078 425.5,64C 421.524,65.0027 418.524,63.836 416.5,60.5C 415.415,58.4131 413.749,57.0798 411.5,56.5C 411.167,56.5 410.833,56.5 410.5,56.5C 410.5,55.1667 409.833,54.5 408.5,54.5C 400.519,48.1904 392.519,41.857 384.5,35.5C 371.456,34.5806 367.456,28.0806 372.5,16C 377.167,14 381.833,14 386.5,16C 387.823,16.8159 388.489,17.9826 388.5,19.5 Z M 376.5,25.5 C 376.5,24.1667 376.5,22.8333 376.5,21.5C 382.174,19.4916 384.174,21.325 382.5,27C 380.011,27.9411 378.011,27.4411 376.5,25.5 Z M 403.5,35.5 C 404.5,35.5 405.5,35.5 406.5,35.5C 406.5,36.1667 406.5,36.8333 406.5,37.5C 405.833,37.5 405.167,37.5 404.5,37.5C 404.167,36.8333 403.833,36.1667 403.5,35.5 Z M 412.5,42.5 C 414.027,42.427 415.027,43.0937 415.5,44.5C 413.973,44.573 412.973,43.9063 412.5,42.5 Z M 426.5,44.5 C 426.167,44.5 425.833,44.5 425.5,44.5C 425.369,43.6236 425.702,42.9569 426.5,42.5C 427.463,42.9698 427.463,43.6365 426.5,44.5 Z M 418.5,46.5 C 419.708,47.2341 421.041,47.5674 422.5,47.5C 422.5,48.1667 422.5,48.8333 422.5,49.5C 420.368,49.4456 419.035,48.4456 418.5,46.5 Z"/></g>
<g><path style="opacity:0.306" fill="#494949" d="M 388.5,19.5 C 389.458,21.3024 390.125,23.3024 390.5,25.5C 388.692,24.0821 388.025,22.0821 388.5,19.5 Z"/></g>
<g><path style="opacity:0.62" fill="#4e4e4e" d="M 376.5,21.5 C 376.5,22.8333 376.5,24.1667 376.5,25.5C 375.414,25.38 374.747,24.7133 374.5,23.5C 374.747,22.2867 375.414,21.62 376.5,21.5 Z"/></g>
<g><path style="opacity:0.48" fill="#454545" d="M 456.5,35.5 C 454.039,36.531 451.373,37.1977 448.5,37.5C 450.78,35.7773 453.447,35.1107 456.5,35.5 Z"/></g>
<g><path style="opacity:0.998" fill="#1a1a1a" d="M 456.5,35.5 C 459.92,36.357 462.254,38.357 463.5,41.5C 463.599,44.2372 463.265,46.9039 462.5,49.5C 462.141,51.371 461.141,52.871 459.5,54C 457.238,54.6419 455.071,55.4752 453,56.5C 450.171,59.4778 448.004,62.8112 446.5,66.5C 445.833,66.5 445.5,66.8333 445.5,67.5C 444.833,67.5 444.5,67.8333 444.5,68.5C 443.833,68.5 443.5,68.8333 443.5,69.5C 442.833,69.5 442.5,69.8333 442.5,70.5C 440.273,71.4006 439.273,73.0672 439.5,75.5C 438.833,75.5 438.5,75.8333 438.5,76.5C 437.833,76.5 437.5,76.8333 437.5,77.5C 436.833,77.5 436.5,77.8333 436.5,78.5C 435.833,78.5 435.5,78.8333 435.5,79.5C 434.833,79.5 434.5,79.8333 434.5,80.5C 432.896,81.287 432.229,82.6203 432.5,84.5C 429.588,85.5783 429.254,86.9117 431.5,88.5C 431.5,89.1667 431.833,89.5 432.5,89.5C 432.5,90.1667 432.833,90.5 433.5,90.5C 433.5,91.1667 433.833,91.5 434.5,91.5C 434.5,91.8333 434.5,92.1667 434.5,92.5C 435.207,94.1344 436.373,95.4677 438,96.5C 438.49,97.7932 438.657,99.1266 438.5,100.5C 437.833,100.5 437.5,100.833 437.5,101.5C 435.5,101.5 434.5,102.5 434.5,104.5C 433.127,104.657 431.793,104.49 430.5,104C 426.008,101.103 422.008,97.603 418.5,93.5C 417.267,92.0242 416.267,90.3575 415.5,88.5C 415.846,87.1508 416.179,85.8175 416.5,84.5C 423.696,73.4707 431.863,63.1373 441,53.5C 443.825,50.3047 444.992,46.8047 444.5,43C 445.488,40.833 446.821,38.9997 448.5,37.5C 451.373,37.1977 454.039,36.531 456.5,35.5 Z M 454.5,49.5 C 452.806,48.4726 451.473,47.1392 450.5,45.5C 451.818,41.8412 454.152,41.0079 457.5,43C 458.711,46.0101 457.711,48.1767 454.5,49.5 Z"/></g>
<g><path style="opacity:0.106" fill="#474747" d="M 406.5,35.5 C 407.833,36.1667 408.833,37.1667 409.5,38.5C 408.167,38.8333 408.167,39.1667 409.5,39.5C 409.5,40.1667 409.833,40.5 410.5,40.5C 410.5,41.1667 410.833,41.5 411.5,41.5C 411.5,41.8333 411.5,42.1667 411.5,42.5C 408.63,41.5667 406.296,39.9 404.5,37.5C 405.167,37.5 405.833,37.5 406.5,37.5C 406.5,36.8333 406.5,36.1667 406.5,35.5 Z"/></g>
<g><path style="opacity:0.999" fill="#1b1b1b" d="M 397.5,54.5 C 396.833,57.1667 396.167,59.8333 395.5,62.5C 393.833,64.1667 392.167,65.8333 390.5,67.5C 389.094,67.9731 388.427,68.9731 388.5,70.5C 388.5,71.1667 388.167,71.5 387.5,71.5C 386.094,71.9731 385.427,72.9731 385.5,74.5C 380.854,80.9787 376.021,87.3121 371,93.5C 369.883,97.2521 369.05,101.085 368.5,105C 362.603,112.166 356.436,112.332 350,105.5C 349.24,101.775 349.407,98.1078 350.5,94.5C 355.212,92.7325 359.212,90.0658 362.5,86.5C 365.535,84.1212 367.869,81.1212 369.5,77.5C 369.5,77.1667 369.5,76.8333 369.5,76.5C 370.674,75.4863 371.34,74.153 371.5,72.5C 372.167,72.5 372.5,72.1667 372.5,71.5C 372.833,71.5 373.167,71.5 373.5,71.5C 375.853,69.8987 378.02,67.8987 380,65.5C 380.483,64.552 380.649,63.552 380.5,62.5C 380.5,62.1667 380.5,61.8333 380.5,61.5C 382.5,61.5 383.5,60.5 383.5,58.5C 383.218,57.2223 382.551,56.2223 381.5,55.5C 381.5,53.5 380.5,52.5 378.5,52.5C 377.609,51.8902 376.609,51.5569 375.5,51.5C 372.561,46.501 373.894,42.8344 379.5,40.5C 386.774,43.8027 392.774,48.4693 397.5,54.5 Z M 358.5,96.5 C 364.839,98.8325 365.006,101.499 359,104.5C 354.544,102.031 354.377,99.3648 358.5,96.5 Z"/></g>
<g><path style="opacity:0.282" fill="#505050" d="M 463.5,41.5 C 464.152,42.4486 464.486,43.6153 464.5,45C 464.693,47.0081 464.026,48.5081 462.5,49.5C 463.265,46.9039 463.599,44.2372 463.5,41.5 Z"/></g>
<g><path style="opacity:0.357" fill="#464646" d="M 424.5,44.5 C 424.833,45.8333 425.167,45.8333 425.5,44.5C 425.833,44.5 426.167,44.5 426.5,44.5C 425.92,46.7488 424.587,48.4154 422.5,49.5C 422.5,48.8333 422.5,48.1667 422.5,47.5C 421.041,47.5674 419.708,47.2341 418.5,46.5C 418.5,46.1667 418.5,45.8333 418.5,45.5C 420.565,45.4828 422.565,45.1495 424.5,44.5 Z"/></g>
<g><path style="opacity:0.055" fill="#4f4f4f" d="M 450.5,45.5 C 451.473,47.1392 452.806,48.4726 454.5,49.5C 451.817,50.1658 450.484,48.8325 450.5,45.5 Z"/></g>
<g><path style="opacity:1" fill="#181818" d="M 375.5,51.5 C 376.167,52.5 376.833,53.5 377.5,54.5C 377.904,55.7564 378.571,56.9231 379.5,58C 378.68,59.8003 378.014,61.6336 377.5,63.5C 377.167,63.5 376.833,63.5 376.5,63.5C 374.721,64.6697 373.721,66.3364 373.5,68.5C 373.5,69.1667 373.5,69.8333 373.5,70.5C 372.833,70.5 372.5,70.8333 372.5,71.5C 371.833,71.5 371.5,71.8333 371.5,72.5C 370.094,72.9731 369.427,73.9731 369.5,75.5C 360.865,76.8681 358.198,73.5348 361.5,65.5C 364.426,60.9002 367.76,56.5669 371.5,52.5C 372.689,51.5713 374.022,51.238 375.5,51.5 Z"/></g>
<g><path style="opacity:0.075" fill="#5f5f5f" d="M 408.5,54.5 C 409.833,54.5 410.5,55.1667 410.5,56.5C 409.167,56.5 408.5,55.8333 408.5,54.5 Z"/></g>
<g><path style="opacity:0.071" fill="#4f4f4f" d="M 411.5,56.5 C 413.749,57.0798 415.415,58.4131 416.5,60.5C 414.251,59.9202 412.585,58.5869 411.5,56.5 Z"/></g>
<g><path style="opacity:0.102" fill="#515151" d="M 397.5,54.5 C 398.718,57.533 398.052,60.1996 395.5,62.5C 396.167,59.8333 396.833,57.1667 397.5,54.5 Z"/></g>
<g><path style="opacity:0.235" fill="#414141" d="M 378.5,52.5 C 380.5,52.5 381.5,53.5 381.5,55.5C 380.535,56.7211 380.702,58.0544 382,59.5C 382.383,58.944 382.883,58.6107 383.5,58.5C 383.5,60.5 382.5,61.5 380.5,61.5C 379.833,61.5 379.5,61.8333 379.5,62.5C 378.833,62.5 378.5,62.8333 378.5,63.5C 378.167,63.5 377.833,63.5 377.5,63.5C 378.014,61.6336 378.68,59.8003 379.5,58C 378.571,56.9231 377.904,55.7564 377.5,54.5C 378.338,54.1583 378.672,53.4916 378.5,52.5 Z"/></g>
<g><path style="opacity:0.376" fill="#424242" d="M 379.5,62.5 C 379.833,62.5 380.167,62.5 380.5,62.5C 380.649,63.552 380.483,64.552 380,65.5C 378.02,67.8987 375.853,69.8987 373.5,71.5C 373.5,71.1667 373.5,70.8333 373.5,70.5C 375.933,69.4523 375.933,68.7856 373.5,68.5C 373.721,66.3364 374.721,64.6697 376.5,63.5C 376.737,67.2887 377.404,67.2887 378.5,63.5C 379.167,63.5 379.5,63.1667 379.5,62.5 Z M 376.5,63.5 C 376.833,63.5 377.167,63.5 377.5,63.5C 377.833,63.5 378.167,63.5 378.5,63.5C 377.404,67.2887 376.737,67.2887 376.5,63.5 Z"/></g>
<g><path style="opacity:0.991" fill="#1b1b1b" d="M 446.5,66.5 C 450.344,67.6691 453.344,70.0024 455.5,73.5C 454.533,75.7901 453.2,77.7901 451.5,79.5C 449.088,79.6941 448.088,81.0274 448.5,83.5C 447.02,85.8575 445.353,88.1908 443.5,90.5C 442.423,91.7051 441.09,92.3718 439.5,92.5C 438.833,92.5 438.167,92.5 437.5,92.5C 436.833,92.5 436.167,92.5 435.5,92.5C 435.5,91.8333 435.167,91.5 434.5,91.5C 433.833,91.5 433.5,91.1667 433.5,90.5C 432.833,90.5 432.5,90.1667 432.5,89.5C 431.833,89.5 431.5,89.1667 431.5,88.5C 431.833,87.1667 432.167,85.8333 432.5,84.5C 432.833,84.5 433.167,84.5 433.5,84.5C 436.556,82.0515 438.889,79.0515 440.5,75.5C 441.167,73.8333 441.833,72.1667 442.5,70.5C 443.167,70.5 443.5,70.1667 443.5,69.5C 444.167,69.5 444.5,69.1667 444.5,68.5C 445.167,68.5 445.5,68.1667 445.5,67.5C 446.167,67.5 446.5,67.1667 446.5,66.5 Z"/></g>
<g><path style="opacity:0.133" fill="#5c5c5c" d="M 390.5,67.5 C 390.715,69.1788 390.048,70.1788 388.5,70.5C 388.427,68.9731 389.094,67.9731 390.5,67.5 Z"/></g>
<g><path style="opacity:0.439" fill="#454545" d="M 361.5,65.5 C 358.198,73.5348 360.865,76.8681 369.5,75.5C 369.5,75.8333 369.5,76.1667 369.5,76.5C 368.833,76.5 368.5,76.8333 368.5,77.5C 364.197,78.2038 360.697,76.8705 358,73.5C 357.52,70.1369 358.687,67.4703 361.5,65.5 Z"/></g>
<g><path style="opacity:0.035" fill="#646464" d="M 387.5,71.5 C 387.573,73.0269 386.906,74.0269 385.5,74.5C 385.427,72.9731 386.094,71.9731 387.5,71.5 Z"/></g>
<g><path style="opacity:0.349" fill="#3c3c3c" d="M 368.5,77.5 C 368.833,77.5 369.167,77.5 369.5,77.5C 367.869,81.1212 365.535,84.1212 362.5,86.5C 363.756,82.9837 365.756,79.9837 368.5,77.5 Z"/></g>
<g><path style="opacity:0.153" fill="#575757" d="M 451.5,79.5 C 450.974,81.2303 449.974,82.5637 448.5,83.5C 448.088,81.0274 449.088,79.6941 451.5,79.5 Z"/></g>
<g><path style="opacity:0.995" fill="#1b1b1b" d="M 421.5,103.5 C 422.262,105.262 423.596,106.262 425.5,106.5C 429.538,109.533 433.871,111.366 438.5,112C 443.153,114.942 444.653,119.109 443,124.5C 439.113,130.58 433.946,131.913 427.5,128.5C 423.845,120.514 418.178,114.514 410.5,110.5C 410.5,109.833 410.167,109.5 409.5,109.5C 409.5,108.833 409.167,108.5 408.5,108.5C 408.5,108.167 408.5,107.833 408.5,107.5C 407.965,105.554 406.632,104.554 404.5,104.5C 403.167,104.833 403.167,105.167 404.5,105.5C 404.5,106.167 404.5,106.833 404.5,107.5C 406.607,109.727 408.94,111.727 411.5,113.5C 410.303,120.766 406.636,122.6 400.5,119C 397.626,116.623 394.959,114.123 392.5,111.5C 390.933,109.348 389.266,107.181 387.5,105C 388.339,103.016 389.339,101.183 390.5,99.5C 390.5,99.1667 390.5,98.8333 390.5,98.5C 389.833,98.5 389.5,98.8333 389.5,99.5C 388.508,99.3284 387.842,99.6618 387.5,100.5C 387.167,100.5 386.833,100.5 386.5,100.5C 384.451,101.882 382.785,103.548 381.5,105.5C 380.325,105.719 379.325,105.386 378.5,104.5C 376.604,103.1 375.271,101.267 374.5,99C 375.96,96.0409 377.627,93.2076 379.5,90.5C 383.084,86.8617 386.584,83.195 390,79.5C 393.972,81.8951 397.805,84.3951 401.5,87C 408.334,92.3371 415,97.8371 421.5,103.5 Z M 392.5,95.5 C 392.833,96.1667 393.167,96.8333 393.5,97.5C 392.391,97.5569 391.391,97.8902 390.5,98.5C 390.351,97.448 390.517,96.448 391,95.5C 391.69,94.2617 392.19,94.2617 392.5,95.5 Z M 396.5,100.5 C 396.5,100.167 396.5,99.8333 396.5,99.5C 397.167,99.5 397.833,99.5 398.5,99.5C 398.833,100.167 399.167,100.833 399.5,101.5C 398.391,101.443 397.391,101.11 396.5,100.5 Z M 404.5,105.5 C 406.933,106.548 406.933,107.214 404.5,107.5C 404.5,106.833 404.5,106.167 404.5,105.5 Z M 431.5,117.5 C 437.016,117.473 438.349,119.64 435.5,124C 430.791,124.082 429.458,121.915 431.5,117.5 Z"/></g>
<g><path style="opacity:0.631" fill="#3f3f3f" d="M 439.5,75.5 C 439.833,75.5 440.167,75.5 440.5,75.5C 438.889,79.0515 436.556,82.0515 433.5,84.5C 433.833,83.1667 434.167,81.8333 434.5,80.5C 435.167,80.5 435.5,80.1667 435.5,79.5C 436.167,79.5 436.5,79.1667 436.5,78.5C 437.167,78.5 437.5,78.1667 437.5,77.5C 438.167,77.5 438.5,77.1667 438.5,76.5C 439.167,76.5 439.5,76.1667 439.5,75.5 Z"/></g>
<g><path style="opacity:0.894" fill="#1d1d1d" d="M 478.5,84.5 C 480.467,84.2606 482.301,84.5939 484,85.5C 485.626,91.3848 486.46,97.3848 486.5,103.5C 482.837,104.005 480.503,102.505 479.5,99C 478.234,98.6905 477.067,98.1905 476,97.5C 474.715,100.804 472.548,101.47 469.5,99.5C 469.343,98.1266 469.51,96.7932 470,95.5C 473.326,92.1643 476.159,88.4977 478.5,84.5 Z"/></g>
<g><path style="opacity:0.729" fill="#161616" d="M 496.5,93.5 C 494.925,96.1578 493.592,99.4911 492.5,103.5C 491.414,103.38 490.747,102.713 490.5,101.5C 491.167,99.1667 491.833,96.8333 492.5,94.5C 492.253,93.2867 491.586,92.62 490.5,92.5C 489.504,92.5858 488.671,92.2524 488,91.5C 487.506,89.8659 487.34,88.1992 487.5,86.5C 492.545,87.1836 497.545,88.1836 502.5,89.5C 502.833,94.281 500.833,95.6143 496.5,93.5 Z"/></g>
<g><path style="opacity:0.414" fill="#3e3e3e" d="M 416.5,84.5 C 416.179,85.8175 415.846,87.1508 415.5,88.5C 416.267,90.3575 417.267,92.0242 418.5,93.5C 412.899,91.4379 412.232,88.4379 416.5,84.5 Z"/></g>
<g><path style="opacity:0.836" fill="#191919" d="M 509.5,92.5 C 512.455,93.1587 515.455,93.4921 518.5,93.5C 520.119,97.7331 519.786,101.733 517.5,105.5C 515.329,106.245 512.995,106.412 510.5,106C 510.026,107.729 509.026,108.895 507.5,109.5C 506.836,103.778 507.503,98.1117 509.5,92.5 Z M 512.5,99.5 C 513.721,98.5354 515.054,98.702 516.5,100C 515.072,100.579 513.738,100.412 512.5,99.5 Z"/></g>
<g><path style="opacity:0.494" fill="#4a4a4a" d="M 434.5,92.5 C 434.833,92.5 435.167,92.5 435.5,92.5C 436.167,93.8333 436.833,93.8333 437.5,92.5C 438.167,92.5 438.833,92.5 439.5,92.5C 439.594,95.1617 439.26,97.8284 438.5,100.5C 438.657,99.1266 438.49,97.7932 438,96.5C 436.373,95.4677 435.207,94.1344 434.5,92.5 Z"/></g>
<g><path style="opacity:0.498" fill="#373737" d="M 490.5,92.5 C 491.586,92.62 492.253,93.2867 492.5,94.5C 491.833,96.8333 491.167,99.1667 490.5,101.5C 490.747,102.713 491.414,103.38 492.5,103.5C 492.672,104.492 492.338,105.158 491.5,105.5C 490.5,105.5 489.5,105.5 488.5,105.5C 489.585,101.24 490.252,96.9062 490.5,92.5 Z"/></g>
<g><path style="opacity:0.008" fill="#4a4a4a" d="M 392.5,95.5 C 395.198,95.8449 397.198,97.1782 398.5,99.5C 397.833,99.5 397.167,99.5 396.5,99.5C 396.5,99.8333 396.5,100.167 396.5,100.5C 395.1,99.9002 394.1,98.9002 393.5,97.5C 393.167,96.8333 392.833,96.1667 392.5,95.5 Z"/></g>
<g><path style="opacity:0.671" fill="#626262" d="M 496.5,93.5 C 495.833,97.8333 495.167,102.167 494.5,106.5C 493.209,106.737 492.209,106.404 491.5,105.5C 492.338,105.158 492.672,104.492 492.5,103.5C 493.592,99.4911 494.925,96.1578 496.5,93.5 Z"/></g>
<g><path style="opacity:0.359" fill="#363636" d="M 389.5,99.5 C 389.833,99.5 390.167,99.5 390.5,99.5C 389.339,101.183 388.339,103.016 387.5,105C 389.266,107.181 390.933,109.348 392.5,111.5C 388.787,109.954 386.287,107.287 385,103.5C 384.184,104.823 383.017,105.489 381.5,105.5C 382.785,103.548 384.451,101.882 386.5,100.5C 386.833,101.833 387.167,101.833 387.5,100.5C 388.492,100.672 389.158,100.338 389.5,99.5 Z"/></g>
<g><path style="opacity:1" fill="#2d2d2d" d="M 518.5,93.5 C 520.306,95.0894 521.639,97.0894 522.5,99.5C 525.086,100.48 527.753,100.813 530.5,100.5C 530.5,100.833 530.5,101.167 530.5,101.5C 527.121,101.515 524.121,102.515 521.5,104.5C 521.167,103.167 520.833,103.167 520.5,104.5C 519.609,105.11 518.609,105.443 517.5,105.5C 519.786,101.733 520.119,97.7331 518.5,93.5 Z"/></g>
<g><path style="opacity:0.791" fill="#131313" d="M 530.5,101.5 C 530.768,103.099 530.434,104.432 529.5,105.5C 528.833,105.5 528.167,105.5 527.5,105.5C 526.923,104.227 526.257,104.227 525.5,105.5C 524.692,107.925 523.692,110.258 522.5,112.5C 521.264,111.754 519.93,111.421 518.5,111.5C 519.566,109.299 520.233,106.965 520.5,104.5C 520.833,104.5 521.167,104.5 521.5,104.5C 524.121,102.515 527.121,101.515 530.5,101.5 Z"/></g>
<g><path style="opacity:0.188" fill="#626262" d="M 437.5,101.5 C 437.144,103.19 436.144,104.19 434.5,104.5C 434.5,102.5 435.5,101.5 437.5,101.5 Z"/></g>
<g><path style="opacity:0.3" fill="#444444" d="M 530.5,100.5 C 531.268,101.263 531.768,102.263 532,103.5C 535.801,100.827 539.301,101.16 542.5,104.5C 532.954,101.125 529.287,104.458 531.5,114.5C 528.756,111.996 528.089,108.996 529.5,105.5C 530.434,104.432 530.768,103.099 530.5,101.5C 530.5,101.167 530.5,100.833 530.5,100.5 Z"/></g>
<g><path style="opacity:0.008" fill="#6c6c6c" d="M 421.5,103.5 C 423.404,103.738 424.738,104.738 425.5,106.5C 423.596,106.262 422.262,105.262 421.5,103.5 Z"/></g>
<g><path style="opacity:0.527" fill="#393939" d="M 509.5,92.5 C 507.503,98.1117 506.836,103.778 507.5,109.5C 506.5,109.5 505.5,109.5 504.5,109.5C 504.8,103.282 506.466,97.6158 509.5,92.5 Z"/></g>
<g><path style="opacity:0.993" fill="#1d1d1d" d="M 542.5,104.5 C 543.966,105.347 544.8,106.68 545,108.5C 545.671,107.748 546.504,107.414 547.5,107.5C 550.482,107.104 553.149,107.771 555.5,109.5C 556.318,107.892 556.985,106.225 557.5,104.5C 558.325,103.614 559.325,103.281 560.5,103.5C 559.833,107.167 559.167,110.833 558.5,114.5C 558.739,116.467 558.406,118.301 557.5,120C 553.675,121.274 550.008,121.274 546.5,120C 545.228,118.693 544.228,117.193 543.5,115.5C 539.047,118.495 535.047,118.161 531.5,114.5C 529.287,104.458 532.954,101.125 542.5,104.5 Z M 535.5,107.5 C 538.166,107.066 539.333,108.066 539,110.5C 535.371,112.033 534.204,111.033 535.5,107.5 Z M 551.5,111.5 C 553.104,112.287 553.771,113.62 553.5,115.5C 549.437,115.384 548.77,114.051 551.5,111.5 Z"/></g>
<g><path style="opacity:0.651" fill="#474747" d="M 566.5,110.5 C 565.167,110.5 563.833,110.5 562.5,110.5C 561.833,113.833 561.167,117.167 560.5,120.5C 559.91,118.01 559.743,115.343 560,112.5C 559.722,113.416 559.222,114.082 558.5,114.5C 559.167,110.833 559.833,107.167 560.5,103.5C 559.325,103.281 558.325,103.614 557.5,104.5C 556.985,106.225 556.318,107.892 555.5,109.5C 553.149,107.771 550.482,107.104 547.5,107.5C 549.895,106.186 552.395,106.186 555,107.5C 555.116,101.673 557.449,100.34 562,103.5C 561.981,105.107 561.815,106.774 561.5,108.5C 563.553,108.402 565.22,109.069 566.5,110.5 Z"/></g>
<g><path style="opacity:0.255" fill="#3f3f3f" d="M 404.5,105.5 C 404.5,105.167 404.5,104.833 404.5,104.5C 406.632,104.554 407.965,105.554 408.5,107.5C 407.167,107.833 407.167,108.167 408.5,108.5C 409.167,108.5 409.5,108.833 409.5,109.5C 410.167,109.5 410.5,109.833 410.5,110.5C 411.11,111.391 411.443,112.391 411.5,113.5C 408.94,111.727 406.607,109.727 404.5,107.5C 406.933,107.214 406.933,106.548 404.5,105.5 Z"/></g>
<g><path style="opacity:0.823" fill="#1c1c1c" d="M 566.5,110.5 C 566.173,112.488 565.84,114.488 565.5,116.5C 565.477,118.067 565.977,119.4 567,120.5C 568.845,118.133 570.011,115.467 570.5,112.5C 572.117,113.038 573.784,113.371 575.5,113.5C 575.5,114.5 575.5,115.5 575.5,116.5C 574.766,117.708 574.433,119.041 574.5,120.5C 573.053,121.622 572.053,123.122 571.5,125C 568.036,125.817 564.702,125.483 561.5,124C 560.663,122.989 560.33,121.822 560.5,120.5C 561.167,117.167 561.833,113.833 562.5,110.5C 563.833,110.5 565.167,110.5 566.5,110.5 Z"/></g>
<g><path style="opacity:0.431" fill="#383838" d="M 527.5,105.5 C 525.722,107.829 524.722,110.496 524.5,113.5C 521.918,113.975 519.918,113.308 518.5,111.5C 519.93,111.421 521.264,111.754 522.5,112.5C 523.692,110.258 524.692,107.925 525.5,105.5C 526.257,104.227 526.923,104.227 527.5,105.5 Z"/></g>
<g><path style="opacity:0.678" fill="#646464" d="M 570.5,112.5 C 570.917,111.876 571.584,111.543 572.5,111.5C 574.646,111.634 575.646,112.301 575.5,113.5C 573.784,113.371 572.117,113.038 570.5,112.5 Z"/></g>
<g><path style="opacity:0.439" fill="#575757" d="M 593.5,114.5 C 592.5,114.5 591.5,114.5 590.5,114.5C 590.59,117.152 589.924,119.485 588.5,121.5C 588.167,118.833 587.833,118.833 587.5,121.5C 586.833,121.5 586.5,121.167 586.5,120.5C 587.038,118.883 587.371,117.216 587.5,115.5C 589.362,113.525 591.362,113.192 593.5,114.5 Z"/></g>
<g><path style="opacity:0.974" fill="#222222" d="M 587.5,115.5 C 587.371,117.216 587.038,118.883 586.5,120.5C 584.076,120.192 581.743,120.526 579.5,121.5C 581.204,123.849 583.537,124.849 586.5,124.5C 586.714,126.144 586.38,127.644 585.5,129C 582.314,129.596 579.314,129.096 576.5,127.5C 576.715,125.821 576.048,124.821 574.5,124.5C 574.5,123.5 574.5,122.5 574.5,121.5C 576.379,120.105 577.379,118.105 577.5,115.5C 580.731,114.218 584.064,114.218 587.5,115.5 Z"/></g>
<g><path style="opacity:0.051" fill="#777777" d="M 593.5,114.5 C 594.376,114.369 595.043,114.702 595.5,115.5C 594.209,116.527 594.209,117.527 595.5,118.5C 593.824,117.817 593.157,116.483 593.5,114.5 Z"/></g>
<g><path style="opacity:0.006" fill="#818181" d="M 595.5,118.5 C 596.675,118.281 597.675,118.614 598.5,119.5C 598.376,120.107 598.043,120.44 597.5,120.5C 596.833,119.833 596.167,119.167 595.5,118.5 Z"/></g>
<g><path style="opacity:0.494" fill="#525252" d="M 577.5,115.5 C 577.379,118.105 576.379,120.105 574.5,121.5C 574.5,121.167 574.5,120.833 574.5,120.5C 574.433,119.041 574.766,117.708 575.5,116.5C 576.167,116.167 576.833,115.833 577.5,115.5 Z"/></g>
<g><path style="opacity:0.926" fill="#1d1d1d" d="M 593.5,114.5 C 593.157,116.483 593.824,117.817 595.5,118.5C 596.167,119.167 596.833,119.833 597.5,120.5C 601.636,120.213 605.969,120.547 610.5,121.5C 610.741,123.898 610.074,125.898 608.5,127.5C 607.53,126.371 606.364,125.371 605,124.5C 604.5,124.833 604,125.167 603.5,125.5C 606.722,127.14 608.056,129.807 607.5,133.5C 605.052,134.473 602.385,134.806 599.5,134.5C 598.817,132.824 597.483,132.157 595.5,132.5C 595.5,131.5 595.5,130.5 595.5,129.5C 596.791,129.737 597.791,129.404 598.5,128.5C 597.699,126.958 597.366,125.292 597.5,123.5C 596.167,123.5 594.833,123.5 593.5,123.5C 593.5,124.833 593.5,126.167 593.5,127.5C 594.626,128.858 594.626,130.192 593.5,131.5C 591.925,130.544 590.258,129.877 588.5,129.5C 587.612,126.946 587.279,124.279 587.5,121.5C 587.833,121.5 588.167,121.5 588.5,121.5C 589.924,119.485 590.59,117.152 590.5,114.5C 591.5,114.5 592.5,114.5 593.5,114.5 Z M 598.5,128.5 C 596.784,128.371 595.117,128.038 593.5,127.5C 593.5,126.167 593.5,124.833 593.5,123.5C 594.833,123.5 596.167,123.5 597.5,123.5C 597.366,125.292 597.699,126.958 598.5,128.5 Z"/></g>
<g><path style="opacity:0.73" fill="#171717" d="M 622.5,121.5 C 621.608,125.345 620.608,129.179 619.5,133C 619.684,134.376 620.351,135.209 621.5,135.5C 624.244,136.205 626.911,136.205 629.5,135.5C 630.042,131.689 631.042,128.022 632.5,124.5C 633.736,125.246 635.07,125.579 636.5,125.5C 636.26,129.606 635.593,133.606 634.5,137.5C 636.09,139.821 638.423,140.821 641.5,140.5C 641.768,142.099 641.434,143.432 640.5,144.5C 637.156,142.682 633.489,141.682 629.5,141.5C 623.845,141.89 618.845,140.39 614.5,137C 616.102,131.95 617.102,126.783 617.5,121.5C 619.167,121.5 620.833,121.5 622.5,121.5 Z"/></g>
<g><path style="opacity:0.38" fill="#4c4c4c" d="M 608.5,127.5 C 609.846,129.792 609.512,131.792 607.5,133.5C 608.056,129.807 606.722,127.14 603.5,125.5C 604,125.167 604.5,124.833 605,124.5C 606.364,125.371 607.53,126.371 608.5,127.5 Z"/></g>
<g><path style="opacity:0.047" fill="#636363" d="M 574.5,124.5 C 576.048,124.821 576.715,125.821 576.5,127.5C 574.952,127.179 574.285,126.179 574.5,124.5 Z"/></g>
<g><path style="opacity:0.882" fill="#464646" d="M 593.5,127.5 C 595.117,128.038 596.784,128.371 598.5,128.5C 597.791,129.404 596.791,129.737 595.5,129.5C 595.5,130.5 595.5,131.5 595.5,132.5C 597.483,132.157 598.817,132.824 599.5,134.5C 595.107,134.159 591.44,132.492 588.5,129.5C 590.258,129.877 591.925,130.544 593.5,131.5C 594.626,130.192 594.626,128.858 593.5,127.5 Z"/></g>
<g><path style="opacity:0.518" fill="#373737" d="M 622.5,121.5 C 623.124,121.917 623.457,122.584 623.5,123.5C 621.996,127.361 621.329,131.361 621.5,135.5C 620.351,135.209 619.684,134.376 619.5,133C 620.608,129.179 621.608,125.345 622.5,121.5 Z"/></g>
<g><path style="opacity:0.641" fill="#4f4f4f" d="M 656.5,131.5 C 652.187,130.99 648.187,131.657 644.5,133.5C 644.574,131.589 645.574,130.422 647.5,130C 650.167,129.333 652.833,129.333 655.5,130C 656.056,130.383 656.389,130.883 656.5,131.5 Z"/></g>
<g><path style="opacity:0.872" fill="#202020" d="M 656.5,131.5 C 658.745,132.828 659.078,134.661 657.5,137C 655.51,136.862 653.51,136.362 651.5,135.5C 649.261,135.574 648.261,136.741 648.5,139C 649.683,142.767 652.349,144.267 656.5,143.5C 656.167,145.5 655.833,147.5 655.5,149.5C 644.553,148.884 640.886,143.551 644.5,133.5C 648.187,131.657 652.187,130.99 656.5,131.5 Z"/></g>
<g><path style="opacity:0.927" fill="#490000" d="M 252.5,138.5 C 254.833,138.5 257.167,138.5 259.5,138.5C 259.5,142.5 259.5,146.5 259.5,150.5C 253.421,151.212 249.088,154.379 246.5,160C 249.146,160.497 251.813,160.664 254.5,160.5C 254.5,164.5 254.5,168.5 254.5,172.5C 249.786,172.173 245.12,172.507 240.5,173.5C 236.552,186.457 227.886,193.457 214.5,194.5C 214.5,190.167 214.5,185.833 214.5,181.5C 218.695,181.319 222.195,179.653 225,176.5C 229.151,164.694 234.984,153.861 242.5,144C 245.767,141.87 249.1,140.037 252.5,138.5 Z"/></g>
<g><path style="opacity:0.93" fill="#490000" d="M 301.5,138.5 C 303.833,138.5 306.167,138.5 308.5,138.5C 308.5,142.5 308.5,146.5 308.5,150.5C 304.306,150.73 300.806,152.397 298,155.5C 293.161,163.677 288.995,172.177 285.5,181C 293.159,181.5 300.826,181.666 308.5,181.5C 308.5,185.5 308.5,189.5 308.5,193.5C 293.138,193.231 277.805,193.564 262.5,194.5C 262.5,190.167 262.5,185.833 262.5,181.5C 266.077,181.795 269.243,180.795 272,178.5C 276.283,168.992 280.95,159.658 286,150.5C 289.695,144.424 294.862,140.424 301.5,138.5 Z"/></g>
<g><path style="opacity:0.942" fill="#490000" d="M 349.5,138.5 C 354.5,138.5 359.5,138.5 364.5,138.5C 364.5,156.833 364.5,175.167 364.5,193.5C 359.833,193.5 355.167,193.5 350.5,193.5C 350.5,187.833 350.5,182.167 350.5,176.5C 345.489,176.334 340.489,176.501 335.5,177C 331.033,188.242 322.7,194.076 310.5,194.5C 310.5,190.167 310.5,185.833 310.5,181.5C 313.972,181.874 316.972,180.874 319.5,178.5C 324.461,167.913 329.961,157.579 336,147.5C 339.86,143.335 344.36,140.335 349.5,138.5 Z M 348.5,152.5 C 350.414,155.684 351.08,159.351 350.5,163.5C 347.428,163.817 344.428,163.484 341.5,162.5C 343.843,159.138 346.176,155.804 348.5,152.5 Z"/></g>
<g><path style="opacity:0.928" fill="#490000" d="M 387.5,138.5 C 396.167,138.5 404.833,138.5 413.5,138.5C 413.5,142.833 413.5,147.167 413.5,151.5C 404.494,151.334 395.494,151.5 386.5,152C 381.365,153.034 380.699,155.034 384.5,158C 390.965,158.765 397.299,160.099 403.5,162C 412.823,167.701 414.989,175.534 410,185.5C 407.362,189.128 403.862,191.628 399.5,193C 389.167,194.345 378.833,194.845 368.5,194.5C 368.5,190.167 368.5,185.833 368.5,181.5C 377.506,181.666 386.506,181.5 395.5,181C 400.261,178.671 400.595,176.005 396.5,173C 389.565,172.303 382.899,170.636 376.5,168C 367.605,159.966 367.272,151.632 375.5,143C 379.432,140.972 383.432,139.472 387.5,138.5 Z"/></g>
<g><path style="opacity:0.938" fill="#490000" d="M 455.5,138.5 C 457.833,138.5 460.167,138.5 462.5,138.5C 462.335,142.182 462.501,145.848 463,149.5C 467.892,142.303 474.725,138.636 483.5,138.5C 483.824,142.555 483.491,146.555 482.5,150.5C 479.123,151.271 476.289,152.938 474,155.5C 468.524,166.256 462.857,176.923 457,187.5C 451.632,191.933 445.466,194.267 438.5,194.5C 438.665,191.15 438.498,187.817 438,184.5C 432.688,190.906 425.855,194.239 417.5,194.5C 417.5,190.167 417.5,185.833 417.5,181.5C 421.695,181.319 425.195,179.653 428,176.5C 431.912,166.746 436.579,157.413 442,148.5C 445.579,143.731 450.079,140.397 455.5,138.5 Z M 459.5,150.5 C 460.376,150.369 461.043,150.702 461.5,151.5C 459.707,154.251 458.041,157.084 456.5,160C 454.167,160.667 451.833,160.667 449.5,160C 452.072,155.926 455.405,152.759 459.5,150.5 Z M 443.5,172.5 C 446.187,172.336 448.854,172.503 451.5,173C 449.915,177.585 446.748,180.418 442,181.5C 441.5,181.167 441,180.833 440.5,180.5C 441.9,177.965 442.9,175.298 443.5,172.5 Z"/></g>
<g><path style="opacity:0.125" fill="#434343" d="M 634.5,137.5 C 636.987,138.323 639.321,139.323 641.5,140.5C 638.423,140.821 636.09,139.821 634.5,137.5 Z"/></g>
<g><path style="opacity:1" fill="#373737" d="M 629.5,141.5 C 633.489,141.682 637.156,142.682 640.5,144.5C 640.44,145.043 640.107,145.376 639.5,145.5C 635.987,144.336 632.654,143.002 629.5,141.5 Z"/></g>
<g><path style="opacity:0.919" fill="#490000" d="M 88.5,241.5 C 101.11,240.602 107.61,246.602 108,259.5C 110.29,244.118 118.457,239.284 132.5,245C 138.064,251.139 139.897,258.306 138,266.5C 134.996,276.158 128.496,279.991 118.5,278C 111.992,274.507 108.325,269.007 107.5,261.5C 105.905,269.206 101.571,274.706 94.5,278C 84.4531,278.191 74.4531,278.691 64.5,279.5C 63.1667,276.5 63.1667,273.5 64.5,270.5C 66.6145,269.966 68.4478,268.966 70,267.5C 72.5789,260.412 75.9123,253.746 80,247.5C 82.6713,245.098 85.5046,243.098 88.5,241.5 Z M 89.5,250.5 C 96.019,248.856 99.019,251.356 98.5,258C 98.4627,262.408 96.796,266.075 93.5,269C 88.5893,270.492 83.5893,270.826 78.5,270C 80.758,262.645 84.4247,256.145 89.5,250.5 Z M 120.5,250.5 C 127.285,250.281 130.952,253.614 131.5,260.5C 131.207,265.761 128.54,269.094 123.5,270.5C 114.062,265.198 113.062,258.532 120.5,250.5 Z"/></g>
<g><path style="opacity:0.89" fill="#490000" d="M 167.5,241.5 C 169.167,241.5 170.833,241.5 172.5,241.5C 172.5,244.5 172.5,247.5 172.5,250.5C 170.692,250.491 169.025,250.991 167.5,252C 164.167,254.667 160.833,257.333 157.5,260C 154.447,263.387 151.78,267.053 149.5,271C 157.17,271.321 164.837,271.154 172.5,270.5C 172.988,273.711 172.321,276.544 170.5,279C 163.504,279.834 156.504,280.167 149.5,280C 142.369,279.216 139.535,275.382 141,268.5C 147.357,256.977 156.191,247.977 167.5,241.5 Z"/></g>
<g><path style="opacity:0.891" fill="#490000" d="M 189.5,241.5 C 192.167,241.5 194.833,241.5 197.5,241.5C 197.256,246.067 196.09,250.401 194,254.5C 190.358,259.642 186.525,264.642 182.5,269.5C 185.002,270.792 187.669,271.459 190.5,271.5C 195.547,271.029 200.547,270.363 205.5,269.5C 206.308,267.577 206.808,265.577 207,263.5C 207.5,256.174 207.666,248.841 207.5,241.5C 210.167,241.5 212.833,241.5 215.5,241.5C 215.666,249.507 215.5,257.507 215,265.5C 215.658,271.7 213.158,275.866 207.5,278C 198.147,279.885 188.814,279.885 179.5,278C 173.843,275.362 172.343,271.196 175,265.5C 179.048,261.12 182.715,256.454 186,251.5C 187.868,248.395 189.035,245.062 189.5,241.5 Z"/></g>
<g><path style="opacity:0.905" fill="#490000" d="M 243.5,241.5 C 247.167,241.5 250.833,241.5 254.5,241.5C 254.168,250.857 254.502,260.19 255.5,269.5C 256.814,268.687 257.981,267.687 259,266.5C 261.852,257.955 266.352,250.455 272.5,244C 277.9,241.722 283.566,240.889 289.5,241.5C 289.5,253.833 289.5,266.167 289.5,278.5C 286.167,278.5 282.833,278.5 279.5,278.5C 279.666,269.161 279.5,259.827 279,250.5C 276.667,251.5 275,253.167 274,255.5C 271.321,263.029 267.488,269.863 262.5,276C 256.762,278.295 250.762,279.128 244.5,278.5C 244.832,269.475 244.498,260.475 243.5,251.5C 241.541,252.748 240.041,254.415 239,256.5C 236.606,262.287 233.94,267.954 231,273.5C 227.3,277.266 222.8,279.266 217.5,279.5C 217.5,276.5 217.5,273.5 217.5,270.5C 220.617,270.358 223.117,269.024 225,266.5C 227.281,258.601 231.114,251.601 236.5,245.5C 238.765,243.873 241.099,242.539 243.5,241.5 Z"/></g>
<g><path style="opacity:0.895" fill="#490000" d="M 317.5,241.5 C 319.167,241.5 320.833,241.5 322.5,241.5C 322.5,244.5 322.5,247.5 322.5,250.5C 318.845,250.472 316.178,252.139 314.5,255.5C 315.689,256.429 317.022,256.762 318.5,256.5C 318.5,259.167 318.5,261.833 318.5,264.5C 315.5,264.5 312.5,264.5 309.5,264.5C 309.528,266.582 308.861,268.416 307.5,270C 312.489,270.499 317.489,270.666 322.5,270.5C 322.5,273.5 322.5,276.5 322.5,279.5C 312.5,279.5 302.5,279.5 292.5,279.5C 292.5,276.5 292.5,273.5 292.5,270.5C 295.099,270.451 297.266,269.451 299,267.5C 301.579,260.412 304.912,253.746 309,247.5C 311.671,245.098 314.505,243.098 317.5,241.5 Z"/></g>
<g><path style="opacity:0.904" fill="#490000" d="M 349.5,241.5 C 353.167,241.5 356.833,241.5 360.5,241.5C 360.5,250.833 360.5,260.167 360.5,269.5C 362.39,269.703 363.89,269.037 365,267.5C 367.909,260.107 371.576,253.107 376,246.5C 379.398,242.977 383.564,241.311 388.5,241.5C 388.664,244.187 388.497,246.854 388,249.5C 385.532,250.104 383.532,251.438 382,253.5C 378.354,260.775 374.521,267.941 370.5,275C 364.249,278.191 357.582,279.357 350.5,278.5C 350.666,269.494 350.5,260.494 350,251.5C 344.722,257.718 340.722,264.718 338,272.5C 334.148,276.843 329.314,279.176 323.5,279.5C 323.5,276.5 323.5,273.5 323.5,270.5C 325.827,270.335 327.993,269.669 330,268.5C 333.291,261.286 336.958,254.286 341,247.5C 343.322,244.605 346.155,242.605 349.5,241.5 Z"/></g>
<g><path style="opacity:0.901" fill="#490000" d="M 395.5,241.5 C 407.833,241.5 420.167,241.5 432.5,241.5C 432.5,244.5 432.5,247.5 432.5,250.5C 426.71,250.096 421.044,250.596 415.5,252C 411.104,258.843 407.271,266.01 404,273.5C 400.3,277.266 395.8,279.266 390.5,279.5C 390.5,276.5 390.5,273.5 390.5,270.5C 393.617,270.358 396.117,269.024 398,266.5C 400.099,261.135 402.599,255.968 405.5,251C 402.183,250.502 398.85,250.335 395.5,250.5C 395.5,247.5 395.5,244.5 395.5,241.5 Z"/></g>
<g><path style="opacity:0.913" fill="#490000" d="M 459.5,241.5 C 463.167,241.5 466.833,241.5 470.5,241.5C 470.5,253.833 470.5,266.167 470.5,278.5C 467.167,278.5 463.833,278.5 460.5,278.5C 460.5,274.833 460.5,271.167 460.5,267.5C 457.102,267.18 453.768,267.513 450.5,268.5C 447.492,274.841 442.492,278.508 435.5,279.5C 434.516,276.572 434.183,273.572 434.5,270.5C 437.099,270.451 439.266,269.451 441,267.5C 444.011,259.306 448.178,251.806 453.5,245C 455.727,244.059 457.727,242.892 459.5,241.5 Z M 459.5,251.5 C 460.468,253.607 460.802,255.941 460.5,258.5C 458.712,258.785 457.045,258.452 455.5,257.5C 456.467,255.21 457.8,253.21 459.5,251.5 Z"/></g>
<g><path style="opacity:0.887" fill="#490000" d="M 477.5,241.5 C 490.167,241.5 502.833,241.5 515.5,241.5C 515.5,244.5 515.5,247.5 515.5,250.5C 509.379,250.09 503.379,250.59 497.5,252C 493.346,258.474 489.846,265.307 487,272.5C 483.148,276.843 478.314,279.176 472.5,279.5C 472.5,276.5 472.5,273.5 472.5,270.5C 475.617,270.358 478.117,269.024 480,266.5C 482.311,261.229 484.811,256.063 487.5,251C 484.183,250.502 480.85,250.335 477.5,250.5C 477.5,247.5 477.5,244.5 477.5,241.5 Z"/></g>
<g><path style="opacity:0.904" fill="#490000" d="M 536.5,241.5 C 538.167,241.5 539.833,241.5 541.5,241.5C 540.812,246.242 541.812,247.075 544.5,244C 558.425,240.031 566.092,245.531 567.5,260.5C 566.012,276.066 558.012,281.233 543.5,276C 539.908,272.984 537.742,269.151 537,264.5C 536.391,259.677 536.724,255.01 538,250.5C 535.626,252.539 533.626,254.872 532,257.5C 529.798,264.476 526.298,270.643 521.5,276C 518.673,277.623 515.673,278.79 512.5,279.5C 511.167,276.5 511.167,273.5 512.5,270.5C 514.614,269.966 516.448,268.966 518,267.5C 520.579,260.412 523.912,253.746 528,247.5C 530.322,244.605 533.155,242.605 536.5,241.5 Z M 549.5,250.5 C 556.035,250.195 559.702,253.361 560.5,260C 559.87,265.296 557.037,268.796 552,270.5C 545.432,268.031 543.099,263.365 545,256.5C 545.804,253.854 547.304,251.854 549.5,250.5 Z"/></g>
<g><path style="opacity:0.898" fill="#490000" d="M 595.5,241.5 C 599.167,241.5 602.833,241.5 606.5,241.5C 606.168,250.857 606.502,260.19 607.5,269.5C 608.748,268.96 609.915,268.293 611,267.5C 613.806,260.554 617.139,253.888 621,247.5C 624.495,243.278 628.995,241.278 634.5,241.5C 634.813,244.247 634.48,246.914 633.5,249.5C 630.906,250.592 628.739,252.259 627,254.5C 624.077,260.015 621.41,265.682 619,271.5C 612.941,278.019 605.441,280.352 596.5,278.5C 596.832,269.475 596.498,260.475 595.5,251.5C 590.652,257.855 586.819,264.855 584,272.5C 580.148,276.843 575.314,279.176 569.5,279.5C 569.5,276.5 569.5,273.5 569.5,270.5C 572.617,270.358 575.117,269.024 577,266.5C 579.473,260.221 582.473,254.221 586,248.5C 588.529,245.115 591.696,242.782 595.5,241.5 Z"/></g>
</svg>
