<?xml version="1.0" encoding="UTF-8"?>
<svg id="Layer_1" xmlns="http://www.w3.org/2000/svg" version="1.1" viewBox="0 0 507 507">
  <!-- Generator: Adobe Illustrator 30.1.0, SVG Export Plug-In . SVG Version: 2.1.1 Build 136)  -->
  <defs>
    <style>
      .st0 {
        fill: #fff;
        fill-rule: evenodd;
      }
    </style>
  </defs>
  <path class="st0" d="M231.5,165.5c-.6-.3-1.3-.6-2-1-2.7,1.4-5.4,2.1-8,2,.4,1.2,1.2,1.9,2.5,2,1.2-.7,2.3-.9,3.5-.5-3.3,2.7-5,5.8-5,9.5-3.7-5.2-7.2-10.6-10.5-16-1.5.8-2.7,2-3.5,3.5-4,.5-8,.7-12,.5.2,3.4,0,6.7-.5,10-2.3-2.7-4.7-2.7-7,0-2.7-.9-5.6-1.3-8.5-1v3h-16v6c-2.8-1.3-5.8-1.9-9-2,0-5.4.3-10.7,1-16h4v-3c-1.3-.2-2.5.2-3.5,1-.8-1-1.7-2-2.5-3v4c-2.9-3.4-2.3-5.9,2-7.5-1.5-.8-2-2-1.5-3.5,3,1.1,4.8,0,5.5-3.5-1.1-1-.8-1.7,1-2-1.4-2.6-.7-4.6,2-6-1.1-1.1-2.1-2.3-3-3.5,3.7-9.1,8.2-17.8,13.5-26,24.3-7.8,49.2-13.3,74.5-16.5-49-8.4-94.3.9-136,28-26.7,19.5-41.8,45.6-45.5,78.5-6.7-25.3-4-49.6,8-73,7.4-11.8,17.6-20.3,30.5-25.5,26.1-11.6,53.4-17.6,82-18,7.2-16.5,16-32,26.5-46.5,26.1-33.1,59.2-43.3,99.5-30.5,21.7,10.9,36.9,27.7,45.5,50.5,32.4,83.4,64.5,166.9,96.5,250.5-5.8,11.9-14.5,21.2-26,28-14.3,8.2-29.5,12.7-45.5,13.5-32.2-82.7-65.2-165-99-247-2.4-5.2-5.1-10.2-8-15-6.7,7.8-12.7,16.1-18,25-9.2,17.1-18.4,34.1-27.5,51Z"/>
  <path class="st0" d="M352.5,442.5c-.1.6-.4,1.1-1,1.5,1.3.3,2.7.7,4,1-.9.5-1.9.6-3,.5-.2,2.5-1.6,4.1-4,5,.3.7.7,1.3,1,2-2.6,1-5.3,1.3-8,1v8h-9v4h-8v4c-4.4,1.3-8.5,2.7-12.5,4-1.8-4.5-5.1-6.8-10-7-1,.3-1.5,1-1.5,2-41.1-21.4-81.8-43.6-122-66.5-33.4-17.4-66.7-34.7-100-52-30-15.7-52.2-38.8-66.5-69.5-15.1-41.8-9.4-80.4,17-116,11.7-14.7,25-27.7,40-39-20.6,29.9-25.9,62.6-16,98,9.6,33.1,28.5,59.6,56.5,79.5,9.5,6.6,19.2,12.9,29,19,71.2,40.4,142.6,80.6,214,120.5Z"/>
  <path class="st0" d="M160.5,138.5c.9,1.2,1.9,2.4,3,3.5-2.7,1.4-3.4,3.4-2,6-1.8.3-2.1,1-1,2-.7,3.4-2.5,4.6-5.5,3.5-.5,1.5,0,2.7,1.5,3.5-4.3,1.6-4.9,4.1-2,7.5v-4c.8,1,1.7,2,2.5,3,1-.8,2.2-1.2,3.5-1v3h-4c-.7,5.3-1,10.6-1,16,3.2,0,6.2.7,9,2v-6h16v-3c2.9-.3,5.8,0,8.5,1,2.3-2.7,4.7-2.7,7,0,.5-3.3.7-6.6.5-10,4,.2,8,0,12-.5.8-1.5,2-2.7,3.5-3.5,3.3,5.4,6.8,10.8,10.5,16,0-3.7,1.7-6.8,5-9.5-1.2-.4-2.3-.2-3.5.5-1.3-.1-2.1-.8-2.5-2,2.6,0,5.3-.6,8-2,.7.4,1.4.7,2,1-16.4,33.1-33.1,66.1-50,99-1.2,1.1-2.6,1.3-4,.5-22.6-9.5-45.6-17.9-69-25,17.5-33.8,34.8-67.6,52-101.5Z"/>
  <path class="st0" d="M450.5,232.5q-.7-1.3,0,0Z"/>
  <path class="st0" d="M450.5,232.5c.7,0,1,.3,1,1-.3-.3-.7-.7-1-1Z"/>
  <path class="st0" d="M451.5,233.5c.7,0,1,.3,1,1-.3-.3-.7-.7-1-1Z"/>
  <path class="st0" d="M452.5,234.5c.7,0,1,.3,1,1-.3-.3-.7-.7-1-1Z"/>
  <path class="st0" d="M453.5,235.5c16.6,14.9,26.8,33.6,30.5,56,5.8,24.5,4.3,48.5-4.5,72-1.9-1.8-2.6-3.8-2-6-.6-1.3-1.1-2.6-1.5-4-.6,1.5-1.5,2.8-2.5,4l2,2c-1.4,1.5-2.5,3.2-3.5,5-.3-1-.7-2-1-3-14.5,17.8-32.8,30.1-55,37-.8-.1-1.4-.5-2-1-6.7-10.8-13.5-21.5-20.5-32,26.3-3.9,48.5-15.6,66.5-35,19.1-25.3,20.4-51.6,4-79-3.4-5.5-6.9-10.8-10.5-16Z"/>
  <path class="st0" d="M200.5,294.5c-1.3,1-2.6,2-4,3,1.1.6,2.3.3,3.5-1,3.2,2.2,6.7,3.7,10.5,4.5-1.7.7-2.2,1.9-1.5,3.5,2.4.8,4.5,2,6.5,3.5-.7.3-1.3.7-2,1,2.3-.8,4.7-.6,7,.5v3c3.5-.5,6.5.3,9,2.5-.8,2.7-1.3,5.6-1.5,8.5-1.7-2.9-4.2-4.2-7.5-4,.3-1.8,0-3.5-1-5-3.5,3.5-6.9,3.5-10,0,1-.7,2-1.3,3-2-2.4-1.2-4.5-.9-6.5,1-2.4-2.3-5.2-3.4-8.5-3.5-.6-1.2-1.2-2.4-2-3.5-1.5,1.1-2.5.6-3-1.5-2.4-.7-4.7-1.6-7-2.5v3c-27.5-17.1-57.9-31.6-91-43.5-4-.9-8-1.8-12-2.5-3.6-3.8-6.1-8.1-7.5-13,44.2,10,86,26,125.5,48Z"/>
  <path class="st0" d="M336.5,393.5c-3.7-.5-7.2-1.5-10.5-3-1.4.2-2.7.5-4,1-1.7-1.2-3.5-2.1-5.5-2.5,1.2-.9,1-1.7-.5-2.5-2.7,2.6-5.9,4.6-9.5,6,2.9,1.2,5.9,1.3,9,.5-1.4-.9-1.2-1.4.5-1.5,5.1,1,5.6,2.8,1.5,5.5.8.3,1.5.8,2,1.5-2,1.8-4.4,2.3-7,1.5,1-.3,2-.7,3-1-2.9-1-5.9-1.7-9-2-1.8-2.9-4.1-4.1-7-3.5-4.9-4.4-10.6-7.2-17-8.5-.4-.9-.8-1.8-1-2.5-1.4,2.3-.7,3.8,2,4.5-.2.4-.6.6-1,.5-48.3-26.8-96.6-53.7-145-80.5-9.5-5.6-18.5-11.8-27-18.5,1-3.6,2.5-3.6,4.5,0,.3-.7.7-1.3,1-2,1.7,3.2,4.2,5.5,7.5,7-1.4,1.2-1.2,2.2.5,3,3.9.7,7.4,2.7,10.5,6,3.9-1.2,7.3-.2,10,3,1.1-1.4.8-2.5-1-3.5,1.8-.2,3.5.3,5,1.5-1,2.9-.3,5.4,2,7.5,2.7-.5,5.4-.5,8,0-1.5-1.1-2.2-2.6-2-4.5h3v3c2.5-.2,4.3.8,5.5,3,.4-.9.9-1.8,1.5-2.5,2-.3,4-.7,6-1,0-2.8.3-5.6,1-8.5,45.4,25.4,91,52.3,137,80.5,8.6,4.5,17.2,8.6,26,12.5Z"/>
  <path class="st0" d="M82.5,259.5c4,.7,8,1.6,12,2.5,33.1,11.9,63.5,26.4,91,43.5v-3c2.3.9,4.6,1.8,7,2.5.5,2.1,1.5,2.6,3,1.5.8,1.1,1.4,2.3,2,3.5,3.3,0,6.1,1.2,8.5,3.5,2-1.9,4.1-2.2,6.5-1-1,.7-2,1.3-3,2,3.1,3.5,6.5,3.5,10,0,1,1.5,1.3,3.2,1,5,3.3-.2,5.8,1.1,7.5,4,.2-2.9.7-5.8,1.5-8.5-2.5-2.2-5.5-3-9-2.5v-3c-2.3-1.1-4.7-1.3-7-.5.7-.3,1.3-.7,2-1-2-1.5-4.1-2.7-6.5-3.5-.7-1.6-.2-2.8,1.5-3.5-3.8-.8-7.3-2.3-10.5-4.5-1.2,1.3-2.4,1.6-3.5,1,1.4-1,2.7-2,4-3,26.7,14.5,53.4,29.4,80,44.5,30.7,17.4,63.7,26.6,99,27.5,4.7,0,9.4-.4,14-1,7,10.5,13.8,21.2,20.5,32,.6.5,1.2.9,2,1,22.2-6.9,40.5-19.2,55-37,.3,1,.7,2,1,3,1-1.8,2.1-3.5,3.5-5l-2-2c1-1.2,1.9-2.5,2.5-4,.4,1.4.9,2.7,1.5,4-.6,2.2.1,4.2,2,6-10.2,24.8-27.8,41.8-53,51-1.1-.4-2.1-1.1-3-2-1.3-3.1-3-5.9-5-8.5l1-1c-1.7-1.3-3.6-2.5-5.5-3.5-26.6,5.5-52.4,3.5-77.5-6-8.8-3.9-17.4-8-26-12.5-46-28.2-91.6-55.1-137-80.5-.7,2.9-1,5.7-1,8.5-2,.3-4,.7-6,1-.6.8-1.1,1.6-1.5,2.5-1.2-2.2-3-3.2-5.5-3v-3h-3c-.2,1.9.5,3.4,2,4.5-2.6-.5-5.3-.5-8,0-2.3-2.1-3-4.6-2-7.5-1.5-1.2-3.2-1.7-5-1.5,1.8,1,2.1,2.1,1,3.5-2.7-3.2-6.1-4.2-10-3-3.1-3.3-6.6-5.3-10.5-6-1.7-.8-1.9-1.8-.5-3-3.3-1.5-5.8-3.8-7.5-7-.3.7-.7,1.3-1,2-2-3.6-3.5-3.6-4.5,0-11.4-7.7-20.7-17.4-28-29Z"/>
  <path class="st0" d="M84.5,457.5c-1.6-.7-3.3-.9-5-.5,0,3.8-2.3,6.3-6.5,7.5-.5-.3-1-.7-1.5-1,.9-.8,1.9-1.3,3-1.5-2.4-.6-3.4-2.1-3-4.5h-27v4c-6.8-.3-13.4.3-20,2-3.3-1.1-6.6-1.8-10-2,.3-2.7,0-5.4-1-8-.7.5-1.2,1.2-1.5,2-1.8-2.9-1.8-5.9,0-9,.6,2.1,1.1,2.3,1.5.5-2.3-3.5-3.5-3-3.5,1.5-2.8,1.4-3,2.9-.5,4.5-1.7.8-2.7,2.1-3,4-2.2,7.7-3.9,15.5-5,23.5-.7-1.1-1.3-2.1-2-3v-4c2.8-15.7,8-30.7,15.5-45,12.8-25.7,26.2-51,40-76,22.8,13,46,25.3,69.5,37-8,16.6-16.5,32.9-25.5,49-3.9,7.1-8.8,13.4-14.5,19Z"/>
  <path class="st0" d="M59.5,362.5c1.4.2,2.8.7,4,1.5-2.1.6-2.3,1.1-.5,1.5,1.7-.7,3.3-1.3,5-2,1.4.6,2.9,1,4.5,1-.2,1.3.2,2.5,1,3.5,2.6.3,5,1.3,7,3-4,.7-4,1.3,0,2-2.6.5-5.3.7-8,.5v8h12v8c-3.7.3-7.4,0-11-1,.8-1,1-2,.5-3-1.2,1.1-1.7,2.4-1.5,4h-4v-3h-8c.3,2.1,0,4.1-1,6-1.8-2.2-4.1-3.2-7-3,0-4.1.7-8.1,2-12-.1-1.8-.8-3.3-2-4.5,2.6-.5,5.3-.7,8-.5.2-3.4-.2-6.7-1-10Z"/>
  <path class="st0" d="M469.5,430.5c-1.3-.2-2.5.2-3.5,1-2.1-.6-2.9-1.6-2.5-3-2.2,1.7-4.3,3.3-6.5,5-.5-2.7,0-5.2,1.5-7.5,3.1-1.5,5.9-3.3,8.5-5.5,1.5.9,2.5,2.3,3,4,.3-2.1,0-4.1-1-6-2.9,1.3-5.7,1.2-8.5-.5,1.5-2.7,3.5-5,6-7-1.7.1-3.4.6-5,1.5,9.5-9,17.3-19.3,23.5-31,2.3,18.9-2.8,35.2-15.5,49Z"/>
  <path class="st0" d="M336.5,393.5c25.1,9.5,50.9,11.5,77.5,6,1.9,1,3.8,2.2,5.5,3.5l-1,1c2,2.6,3.7,5.4,5,8.5.9.9,1.9,1.6,3,2-9.8,4.9-20.3,7.6-31.5,8-22.7,1.7-44.6-1.8-65.5-10.5-16.3-7.2-32-15.3-47-24.5.4,0,.8-.1,1-.5-2.7-.7-3.4-2.2-2-4.5.2.7.6,1.6,1,2.5,6.4,1.3,12.1,4.1,17,8.5,2.9-.6,5.2.6,7,3.5,3.1.3,6.1,1,9,2-1,.3-2,.7-3,1,2.6.8,5,.3,7-1.5-.5-.7-1.2-1.2-2-1.5,4.1-2.7,3.6-4.5-1.5-5.5-1.7.1-1.9.6-.5,1.5-3.1.8-6.1.7-9-.5,3.6-1.4,6.8-3.4,9.5-6,1.5.8,1.7,1.6.5,2.5,2,.4,3.8,1.3,5.5,2.5,1.3-.5,2.6-.8,4-1,3.3,1.5,6.8,2.5,10.5,3Z"/>
  <path class="st0" d="M506.5,402.5v7c-7.2,55-38.5,85.8-94,92.5-25.7,1.7-50.4-2.6-74-13-13.2-6.1-25.8-12.9-38-20.5,0-1,.5-1.7,1.5-2,4.9.2,8.2,2.5,10,7,4-1.3,8.1-2.7,12.5-4v-4h8v-4h9v-8c2.7.3,5.4,0,8-1-.3-.7-.7-1.3-1-2,2.4-.9,3.8-2.5,4-5,1.1.1,2.1,0,3-.5-1.3-.3-2.7-.7-4-1,.6-.4.9-.9,1-1.5,23.3,12.3,48.1,18.9,74.5,20,32,0,56-13.7,72-41,4.9-12.2,6.6-24.9,5-38,.9,6.5,1.8,12.8,2.5,19Z"/>
  <path class="st0" d="M469.5,430.5c-10.3,12.5-23.7,18.5-40,18-1.7-5.6-4.1-11-7-16,.2-.6.5-1.1,1-1.5,4.4-.8,8.7-1.8,13-3,8.7-4.7,17-9.8,25-15.5,1.6-.9,3.3-1.4,5-1.5-2.5,2-4.5,4.3-6,7,2.8,1.7,5.6,1.8,8.5.5,1,1.9,1.3,3.9,1,6-.5-1.7-1.5-3.1-3-4-2.6,2.2-5.4,4-8.5,5.5-1.5,2.3-2,4.8-1.5,7.5,2.2-1.7,4.3-3.3,6.5-5-.4,1.4.4,2.4,2.5,3,1-.8,2.2-1.2,3.5-1Z"/>
  <path class="st0" d="M84.5,457.5c-20.7,24.9-47.4,37.7-80,38.5-1.1-1-2.2-1.8-3.5-2.5-.2-2.2-.7-4.2-1.5-6v-10c.7.9,1.3,1.9,2,3,1.1-8,2.8-15.8,5-23.5.3-1.9,1.3-3.2,3-4-2.5-1.6-2.3-3.1.5-4.5,0-4.5,1.2-5,3.5-1.5-.4,1.8-.9,1.6-1.5-.5-1.8,3.1-1.8,6.1,0,9,.3-.8.8-1.5,1.5-2,1,2.6,1.3,5.3,1,8,3.4.2,6.7.9,10,2,6.6-1.7,13.2-2.3,20-2v-4h27c-.4,2.4.6,3.9,3,4.5-1.1.2-2.1.7-3,1.5.5.3,1,.7,1.5,1,4.2-1.2,6.4-3.7,6.5-7.5,1.7-.4,3.4-.2,5,.5Z"/>
</svg>