<?xml version="1.0" standalone="no"?>
<!DOCTYPE svg PUBLIC "-//W3C//DTD SVG 20010904//EN"
 "http://www.w3.org/TR/2001/REC-SVG-20010904/DTD/svg10.dtd">
<svg version="1.0" xmlns="http://www.w3.org/2000/svg"
 width="260.000000pt" height="260.000000pt" viewBox="0 0 260.000000 260.000000"
 preserveAspectRatio="xMidYMid meet">
<metadata>
Created by potrace 1.14, written by Peter Selinger 2001-2017
</metadata>
<g transform="translate(0.000000,260.000000) scale(0.100000,-0.100000)"
fill="#000000" stroke="none">
<path d="M198 2583 c-10 -2 -18 -9 -18 -15 0 -6 -3 -8 -6 -5 -7 7 -58 -25 -87
-55 -15 -15 -39 -61 -41 -80 -1 -3 -4 -10 -8 -14 -15 -14 -8 -114 8 -139 9
-14 14 -25 10 -25 -6 0 14 -26 54 -68 23 -24 58 -46 85 -51 6 -2 15 -6 20 -11
11 -9 85 -6 125 6 36 10 84 12 90 5 5 -6 139 -65 150 -66 7 0 98 -43 133 -61
15 -8 27 -12 27 -9 0 3 21 -5 48 -18 62 -33 125 -61 137 -63 6 0 42 -16 80
-33 39 -18 75 -34 80 -35 6 -2 26 -10 45 -19 19 -8 50 -22 68 -29 17 -7 32
-16 32 -19 0 -3 6 -6 13 -6 6 -1 89 -35 184 -76 94 -41 174 -72 177 -69 3 3 6
0 6 -6 0 -12 51 -6 60 7 3 4 13 10 23 14 10 4 15 11 12 17 -3 5 -1 10 4 10 6
0 11 6 11 14 0 8 23 64 50 126 28 62 50 118 50 126 0 8 5 14 11 14 5 0 8 4 4
9 -3 5 -1 12 5 16 6 4 8 11 5 16 -4 5 -2 9 2 9 5 0 17 23 27 50 10 28 22 50
28 50 5 0 6 5 3 10 -4 6 -3 16 2 23 24 31 -18 117 -56 117 -11 0 -21 4 -23 10
-1 5 -12 11 -23 13 -11 1 -25 6 -31 10 -14 8 -65 3 -83 -7 -10 -7 -71 -118
-71 -131 0 -5 -15 -41 -46 -110 -10 -22 -19 -42 -19 -45 0 -3 -5 -13 -11 -23
-9 -16 -14 -17 -52 -5 -23 7 -42 16 -42 20 0 5 -6 8 -13 8 -8 0 -27 6 -43 14
-30 15 -85 37 -94 38 -3 0 -14 5 -25 11 -11 6 -23 10 -27 9 -5 -1 -8 3 -8 9 0
6 -7 9 -15 5 -8 -3 -15 -2 -15 2 0 9 -70 39 -94 40 -5 0 -12 6 -16 13 -5 7
-16 13 -27 14 -10 1 -38 12 -63 23 -25 12 -51 22 -57 22 -7 0 -13 5 -13 11 0
5 -4 7 -10 4 -5 -3 -10 -1 -10 6 0 6 -8 9 -20 6 -11 -3 -20 -1 -20 3 0 5 -21
16 -47 26 -27 10 -51 22 -54 27 -3 5 -9 8 -13 8 -11 -1 -40 10 -136 52 -19 8
-54 23 -77 33 -36 15 -43 23 -52 60 -8 30 -26 58 -62 94 -28 28 -55 48 -60 45
-5 -4 -9 -1 -9 5 0 7 -7 10 -15 6 -8 -3 -15 -1 -15 4 0 10 -108 12 -142 3z
m102 -105 c0 -4 9 -8 20 -8 10 0 32 -16 47 -35 21 -26 27 -45 28 -85 0 -27 -3
-50 -9 -50 -5 0 -7 -3 -3 -6 6 -6 -19 -37 -26 -32 -2 2 -11 -5 -21 -14 -23
-23 -98 -24 -132 -2 -14 10 -32 30 -40 45 -16 32 -19 109 -3 109 5 0 7 5 4 11
-7 11 17 32 67 59 30 17 68 21 68 8z"/>
<path d="M2275 2558 c-8 -5 -20 -6 -25 -3 -6 3 -10 2 -10 -4 0 -5 -10 -13 -22
-17 -28 -9 -78 -55 -78 -71 0 -7 -4 -13 -9 -13 -30 0 -44 -158 -20 -215 16
-37 19 -65 8 -65 -5 0 -9 -6 -9 -14 0 -14 -41 -118 -50 -126 -3 -3 -6 -9 -7
-15 -4 -19 -56 -140 -62 -145 -3 -3 -8 -14 -9 -25 -2 -10 -10 -28 -18 -39 -8
-11 -14 -27 -14 -36 0 -9 -8 -27 -17 -40 -10 -14 -18 -29 -18 -35 -1 -5 -7
-23 -13 -39 -41 -96 -77 -182 -78 -186 -1 -5 -30 -71 -70 -157 -13 -28 -24
-57 -24 -62 0 -6 -5 -11 -11 -11 -5 0 -7 -5 -4 -10 4 -6 -3 -27 -14 -46 -12
-19 -21 -39 -21 -43 0 -5 -12 -35 -27 -67 -15 -33 -27 -62 -29 -66 -1 -5 -2
-9 -4 -10 -9 -11 -9 -68 0 -68 6 0 9 -4 5 -9 -6 -11 62 -61 83 -61 8 0 26 -7
40 -15 36 -20 174 -77 190 -78 6 0 12 -3 12 -7 0 -3 17 -12 37 -20 21 -7 54
-20 73 -28 19 -9 38 -15 43 -14 4 1 7 -3 7 -9 0 -5 4 -8 9 -4 5 3 12 1 16 -4
7 -13 44 -9 72 7 25 14 59 69 55 89 -2 7 2 13 8 13 6 0 8 5 5 10 -3 6 -2 10 2
10 5 0 9 16 10 35 1 46 -36 83 -108 109 -30 11 -57 19 -61 18 -5 -1 -8 2 -8 7
0 5 -17 15 -37 22 -21 7 -54 19 -73 27 -19 8 -37 13 -39 12 -2 -1 -7 4 -12 11
-4 7 1 29 11 50 11 20 16 39 13 43 -4 3 -1 6 6 6 7 0 9 5 6 10 -3 6 -1 10 5
10 6 0 10 6 8 12 -1 7 6 27 15 45 9 18 17 39 17 48 0 8 5 15 12 15 6 0 8 3 5
6 -3 4 -1 16 5 28 7 11 13 23 13 26 1 3 6 16 13 30 6 14 26 61 45 105 19 44
45 103 57 130 24 52 30 71 32 93 1 6 4 12 8 12 4 0 13 18 20 40 7 22 17 40 22
40 5 0 6 4 3 10 -3 5 3 26 14 47 24 46 52 114 52 128 0 6 7 17 15 26 8 9 11
19 7 22 -3 4 -1 7 6 7 7 0 10 4 7 8 -10 16 24 50 55 57 33 7 159 125 133 125
-3 0 -1 7 6 15 6 8 9 19 6 24 -4 5 -2 12 4 16 12 8 13 85 1 85 -5 0 -8 8 -7
17 6 37 -49 107 -115 149 -24 15 -45 27 -46 26 -2 -1 -4 -1 -5 -1 -13 6 -111
3 -123 -3z m131 -124 c52 -34 68 -106 39 -169 -19 -39 -50 -57 -106 -59 -103
-5 -168 108 -109 190 39 53 124 72 176 38z"/>
<path d="M1006 2542 c-18 -4 -54 -32 -49 -39 1 -1 -6 -23 -17 -49 -11 -25 -20
-50 -20 -55 0 -5 -5 -9 -11 -9 -5 0 -8 -4 -4 -9 3 -5 2 -12 -3 -15 -4 -2 -9
-18 -10 -35 -2 -22 2 -31 13 -31 8 0 15 -5 15 -12 0 -6 2 -9 6 -6 3 3 32 -7
65 -23 32 -16 66 -29 74 -29 8 0 15 -5 15 -12 0 -6 3 -8 7 -5 3 4 17 0 30 -8
13 -9 28 -13 33 -10 6 3 10 1 10 -4 0 -6 4 -11 9 -11 5 0 31 -10 58 -22 26
-12 51 -21 56 -20 4 1 7 -2 7 -8 0 -6 3 -9 8 -8 4 1 23 -5 42 -14 19 -8 52
-21 73 -28 20 -8 37 -17 37 -21 0 -4 11 -6 25 -5 21 1 31 12 52 56 15 30 28
57 28 60 1 3 9 22 18 42 27 60 19 87 -31 102 -12 4 -22 12 -22 17 0 6 -4 8 -9
4 -6 -3 -26 4 -46 15 -19 11 -40 20 -45 20 -5 0 -42 15 -82 34 -40 18 -95 41
-123 51 -27 10 -56 23 -64 29 -7 5 -20 11 -29 12 -16 3 -83 35 -92 44 -3 3
-14 4 -24 2z"/>
<path d="M364 1890 c-25 -21 -66 -98 -59 -110 3 -5 1 -11 -5 -15 -13 -8 -13
-38 2 -70 9 -21 50 -49 78 -53 3 0 28 -11 55 -25 28 -14 68 -30 90 -37 22 -7
50 -20 63 -28 12 -8 22 -11 22 -7 0 3 7 -1 16 -9 14 -14 13 -19 -5 -53 -18
-34 -68 -153 -75 -178 -1 -5 -15 -36 -29 -69 -15 -32 -27 -63 -27 -68 0 -5 -7
-20 -16 -33 -9 -14 -13 -25 -9 -25 4 0 3 -6 -3 -13 -13 -15 -57 -129 -54 -139
1 -5 -3 -8 -8 -8 -5 0 -9 -3 -8 -7 1 -5 -9 -30 -22 -58 -12 -27 -23 -53 -22
-56 1 -4 -12 -34 -28 -68 -17 -34 -30 -66 -30 -72 0 -6 -11 -33 -24 -59 -13
-27 -22 -51 -19 -54 4 -3 1 -6 -5 -6 -7 0 -12 -7 -12 -15 0 -41 -38 -85 -82
-94 -26 -6 -99 -100 -102 -133 -1 -3 -4 -10 -8 -14 -5 -4 -8 -31 -8 -60 0 -41
7 -65 30 -104 27 -46 75 -102 93 -107 4 -2 23 -10 43 -18 41 -17 130 -20 139
-5 4 6 11 8 16 5 5 -4 9 -1 9 5 0 6 4 9 9 6 10 -7 115 84 107 92 -3 3 2 11 12
18 14 10 17 29 17 102 0 79 -3 94 -23 121 -13 18 -20 37 -15 44 4 6 8 17 10
22 5 25 69 171 77 176 5 4 5 12 2 18 -4 6 -3 11 2 11 6 0 13 11 16 25 4 14 17
49 30 78 13 28 31 74 41 100 10 26 22 50 26 53 4 2 6 11 2 19 -3 8 0 15 6 15
6 0 10 3 9 8 -1 4 8 29 20 55 12 27 22 55 22 63 0 8 5 14 11 14 5 0 7 5 4 10
-3 6 -1 10 4 10 6 0 10 3 9 8 -3 7 10 41 49 132 8 19 14 36 14 38 -1 1 5 15
13 30 8 15 25 54 37 87 13 33 27 63 32 66 5 3 7 8 5 10 -3 5 25 78 45 114 13
24 17 85 5 85 -4 0 -8 6 -8 14 0 8 -31 30 -70 50 -38 19 -70 33 -70 31 0 -2
-12 2 -27 10 -15 8 -30 12 -35 9 -4 -3 -8 -1 -8 4 0 5 -25 17 -55 27 -30 9
-58 21 -61 26 -3 5 -10 7 -15 4 -5 -4 -9 -1 -9 5 0 6 -4 9 -9 5 -5 -3 -12 -1
-15 4 -3 5 -16 11 -29 15 -13 3 -41 13 -63 22 -51 23 -97 24 -120 4z m-46
-1520 c19 0 62 -39 62 -57 0 -7 3 -13 8 -13 9 0 8 -77 -2 -107 -10 -31 -66
-63 -110 -63 -77 0 -126 50 -126 129 0 55 45 107 103 119 23 4 44 4 45 0 2 -4
11 -8 20 -8z"/>
<path d="M2289 1679 c-13 -10 -21 -19 -17 -19 4 0 -6 -28 -21 -62 -27 -61 -43
-98 -46 -108 -1 -3 -9 -22 -18 -42 -42 -94 -51 -114 -53 -123 -3 -14 -63 -156
-73 -175 -17 -32 -7 -61 29 -80 36 -19 58 -27 74 -28 5 0 12 -4 15 -9 11 -15
78 -34 95 -27 17 6 68 105 69 132 0 6 4 12 9 12 4 0 8 4 8 9 0 5 10 31 22 58
12 26 22 50 22 53 1 3 5 11 9 18 5 6 5 12 0 12 -4 0 -3 4 2 8 13 8 55 108 55
128 0 8 5 14 12 14 6 0 8 3 5 7 -4 3 -2 12 4 20 6 7 8 13 3 13 -5 0 -4 4 3 8
6 4 17 28 24 54 16 58 8 69 -72 100 -32 13 -59 27 -59 31 0 5 -5 5 -10 2 -6
-4 -16 -2 -23 3 -18 14 -42 11 -68 -9z"/>
<path d="M283 1560 c-3 -11 -9 -20 -14 -20 -5 0 -8 -3 -8 -7 1 -5 0 -11 -1
-15 -1 -5 -3 -11 -4 -15 -1 -5 -10 -22 -19 -40 -9 -18 -17 -38 -17 -45 0 -7
-14 -40 -30 -73 -17 -33 -30 -63 -30 -66 0 -4 -10 -29 -22 -56 -11 -26 -22
-52 -23 -58 0 -5 -13 -36 -28 -68 -15 -32 -27 -62 -27 -67 0 -6 -4 -10 -8 -10
-5 0 -8 -10 -7 -21 2 -25 39 -59 64 -59 9 0 27 -7 39 -16 12 -8 22 -12 22 -8
0 3 12 -1 26 -11 14 -9 28 -14 31 -11 4 3 12 1 19 -5 20 -17 39 -5 60 38 10
21 19 40 20 43 1 6 31 77 46 110 6 14 10 29 9 34 -1 5 3 12 9 16 6 4 12 17 13
28 1 12 4 22 8 22 3 0 14 25 24 55 11 30 23 55 28 55 4 0 7 6 6 13 -2 6 5 30
15 52 34 77 39 90 43 111 2 11 -5 28 -14 36 -19 16 -102 50 -117 48 -5 -1 -12
3 -15 9 -4 6 -26 13 -50 16 -37 4 -44 2 -48 -15z"/>
<path d="M940 970 c0 -6 -4 -9 -9 -6 -21 13 -85 -85 -98 -149 -2 -11 -8 -21
-13 -23 -6 -2 -10 -9 -10 -15 0 -17 -43 -121 -53 -128 -5 -3 -8 -8 -7 -10 1
-2 -4 -20 -12 -39 -8 -19 -20 -52 -27 -72 -7 -21 -17 -38 -23 -38 -6 0 -8 -6
-5 -14 3 -8 3 -17 -1 -21 -4 -3 -7 -20 -8 -38 -1 -22 6 -37 25 -53 14 -12 31
-23 36 -24 6 -1 19 -7 30 -13 24 -13 31 -15 73 -23 44 -8 76 14 103 73 12 27
23 53 23 58 1 6 10 28 20 50 10 22 26 63 37 92 23 61 44 71 91 46 18 -9 35
-18 38 -18 10 -3 45 -18 97 -40 28 -13 54 -21 57 -17 3 3 6 0 6 -6 0 -7 3 -11
8 -10 4 0 25 -7 47 -17 52 -23 88 -38 98 -40 4 -2 10 -4 15 -5 4 -1 10 -2 15
-1 4 0 7 -3 7 -7 0 -4 24 -16 53 -27 28 -10 57 -22 63 -26 6 -5 14 -6 17 -2 4
3 7 1 7 -6 0 -7 5 -9 10 -6 6 3 10 1 10 -4 0 -6 7 -11 15 -11 9 0 45 -13 80
-29 36 -17 65 -27 65 -23 0 4 4 1 9 -6 4 -7 18 -14 29 -15 12 -1 22 -5 22 -9
0 -4 4 -8 9 -8 5 0 22 -5 38 -12 15 -6 31 -11 36 -10 4 1 7 -3 7 -9 0 -6 6 -9
14 -6 8 3 19 0 25 -7 7 -8 25 -16 41 -20 31 -6 34 -9 45 -59 8 -37 90 -124
133 -143 36 -15 153 -19 166 -6 4 4 11 7 14 7 32 2 132 98 132 127 0 9 4 19 9
22 5 4 8 14 6 24 -1 9 2 22 7 29 6 7 5 19 -2 32 -6 12 -10 27 -8 34 2 8 -7 36
-20 63 -17 36 -38 60 -78 87 -29 21 -58 36 -63 32 -5 -3 -12 -1 -15 4 -3 5
-30 7 -58 6 -29 -2 -61 -4 -70 -5 -10 -1 -18 -5 -18 -8 0 -4 -13 -9 -30 -10
-18 -1 -30 3 -30 10 0 6 -3 9 -6 5 -3 -3 -40 10 -82 29 -43 19 -79 35 -82 35
-3 0 -21 7 -40 16 -19 8 -46 20 -60 25 -14 6 -43 18 -65 28 -48 22 -178 75
-185 75 -3 0 -15 6 -26 13 -12 6 -48 21 -80 33 -33 12 -64 26 -70 30 -6 5 -30
15 -53 23 -23 9 -56 22 -74 29 -124 55 -183 80 -192 81 -5 1 -20 7 -31 14 -24
13 -129 53 -141 54 -5 0 -16 4 -25 9 -12 7 -18 6 -18 -1z m1454 -621 c52 -41
71 -113 41 -155 -8 -12 -12 -24 -9 -27 7 -7 -89 -53 -101 -48 -9 3 -27 6 -57
10 -14 2 -68 63 -62 72 3 5 1 9 -5 9 -5 0 -8 15 -6 33 2 17 4 32 5 32 1 0 3 8
5 18 12 66 132 101 189 56z"/>
<path d="M1097 528 c-20 -11 -59 -83 -50 -92 4 -3 2 -6 -4 -6 -14 0 -48 -104
-40 -124 4 -9 12 -18 19 -21 7 -2 27 -10 43 -16 17 -7 33 -12 38 -11 4 1 7 -2
7 -6 0 -5 19 -15 43 -22 23 -8 56 -20 72 -29 17 -8 33 -15 36 -16 3 0 21 -7
40 -17 19 -9 81 -35 139 -59 58 -23 108 -46 113 -49 13 -11 67 2 67 16 0 8 3
14 8 14 4 0 16 24 26 52 10 29 23 64 29 78 20 51 17 65 -21 86 -20 10 -40 18
-44 16 -4 -1 -8 2 -8 8 0 6 -3 9 -7 8 -9 -1 -47 14 -101 39 -19 9 -40 16 -48
16 -8 0 -14 4 -14 9 0 4 -3 7 -7 6 -5 -1 -30 8 -56 20 -27 12 -53 22 -58 22
-5 0 -9 5 -9 10 0 6 -3 9 -7 8 -8 -3 -50 12 -108 38 -67 29 -81 32 -98 22z"/>
</g>
</svg>
